<svg viewBox="0 0 128 128" data-preply-ds-component="SvgTokyoUIIllustration" fill="none" xmlns="http://www.w3.org/2000/svg"><path d="m112.207 24.387 1.173 40.252-12.557-9.413L75.85 89.828 61.446 79.117l25.012-34.659-13.42-9.935z" fill="#9DC273"/><path d="m113.376 64.639-12.558-9.414-24.973 34.602-14.404-10.71-2.068 3.314 14.38 10.683 24.585-34.451 13.517 10.092M72.877 34.674l-.375 4.248 11.788 8.542 2.164-3.006z" fill="#3D8738"/><path d="m113.388 64.64-1.173-40.253-39.317 10.15 13.568 9.921-25.012 34.659 14.404 10.71 24.973-34.601z" stroke="#000" stroke-width=".486" stroke-linejoin="round"/><path d="m98.352 58.662 13.517 10.093 1.521-4.117" stroke="#000" stroke-width=".486" stroke-linecap="round" stroke-linejoin="round"/><path d="m61.45 79.117-2.068 3.314 14.38 10.683 2.092-3.286" stroke="#000" stroke-width=".486" stroke-miterlimit="10"/><path d="m72.892 34.537-.385 4.386 11.788 8.541" stroke="#000" stroke-width=".486" stroke-miterlimit="10" stroke-linecap="round"/><path d="m15.135 103.174-.912-40.267 12.503 9.495 25.192-34.43 14.341 10.803-25.238 34.488 13.355 10.022z" fill="#56A0F8"/><path d="m14.222 62.907 12.503 9.495 25.191-34.43 14.342 10.803 2.082-3.3-14.302-10.777-24.816 34.29L15.777 58.8m38.752 34.344.402-4.247L43.2 80.28l-2.178 2.984z" fill="#2151B4"/><path d="m14.216 62.907.91 40.267 39.382-9.901-13.495-10.01L66.25 48.775 51.91 37.971l-25.191 34.43z" stroke="#000" stroke-width=".486" stroke-linejoin="round"/><path d="m14.216 62.905.91 40.267 39.382-9.901-13.495-10.01L66.25 48.773 51.91 37.97 26.719 72.4z" stroke="#000" stroke-width=".486" stroke-linejoin="round"/><path d="M29.219 68.988 15.774 58.8l-1.555 4.107" stroke="#000" stroke-width=".486" stroke-linecap="round" stroke-linejoin="round"/><path d="m66.251 48.773 2.082-3.3-14.302-10.777-2.121 3.273" stroke="#000" stroke-width=".486" stroke-miterlimit="10"/><path d="m54.514 93.273.414-4.376-11.732-8.619" stroke="#000" stroke-width=".486" stroke-miterlimit="10" stroke-linecap="round"/><path d="m44.96 86.09 3.034-2.103-4.655-3.513-2.258 2.774z" fill="#000"/></svg>