<svg data-preply-ds-component="SvgTokyoUIIllustration" xmlns="http://www.w3.org/2000/svg" viewBox="0 0 800 801"><path d="M413.85 80.17c3.05.3 6.07.65 9.14.48 11.01-.14 22.06-.37 33.07.12 2.5.22 5.01.24 6.37 2.7a493 493 0 0 1 12.45 20.68c2.04 3.65 4.35 7.02 6.96 10.27-.3 2.5-.7 4.98-1.09 7.46 10.42.63 20.82-.03 31.25.34 12-.03 23.98-.1 35.98.11 10.56-.35 21.17.36 31.67-.66 5.98 9.37 11.37 19.05 17.08 28.59 1.4 2.4 2.65 5.63 2 8.43-2.94 13.75-7.4 27.08-10.48 40.79-14.18 53.09-28.18 106.56-42.64 159.57 11.29 28.3 23.53 56.2 34.82 84.51 3.19 6.66 5.47 13.66 8.56 20.37 13.52 32.74 26.95 65.66 40.62 98.33 3.72 10.12 8.32 19.87 12.2 29.94 1.45 3.94 3.71 7.74 4.65 11.82.38 1.53-.99 2.45-1.95 3.4-5.84 4.6-11.82 9-17.93 13.22-3.9 2.64-6.96 5.84-11.79 6.6-8.49 1-17.28.33-25.84.64-4.69-.01-8.94.48-13.38-.62-1.35-5.51-4.26-10.22-6.16-15.5-1.62-4.3-3.77-8.37-5.41-12.67-1.72-4.14-2.67-8.52-4.4-12.65-12.8-31.4-26.86-62.25-39.52-93.71-3.07 3.03-6.2 5.97-9.42 8.85-1.75 1.77-4.06 3.72-4.76 6.17-1.8 5.89-2.92 11.98-4.77 17.86-8.66 1-17.14.39-25.8-.04 3.64 15.02 8.24 29.75 12.57 44.58 3.35 12.87 7.34 25.54 10.77 38.39 3.63 11.76 6.55 23.74 10.05 35.53 4.82 17.24 10.13 33.89 13.91 51.25-9.18 6.52-18.27 13.2-27.11 20.2-2.43 1.78-5.37 4.01-8.46 4.28-13.28.35-26.11-.75-39.34.58-3.79-5.84-5.02-13.72-6.81-20.35-5.39-19.13-10.23-38.39-15.46-57.56-2.29-7.26-3.63-14.76-5.94-22.02-6.2-23.98-12.79-47.83-19.04-71.8-32.8.33-65.61.12-98.41.23-12 44.73-23.99 89.44-36.14 134.13-1.72 6.12-3 12.19-5.2 18.14-3.14 1.7-6.26 3.43-9.33 5.26-5.95 3.53-12.4 6.09-18.36 9.63-3.07 1.6-6.42 3.98-9.89 4.41-13.09.07-26.15-.06-39.23-.42-1.49.07-2.6-2.02-3.63-2.89 16.64-63.55 33.73-127.18 50.78-190.63-4.38-.01-8.72.16-13.09.43-2.3.17-4.22-.33-5.9-1.95-4.68-4.34-8.84-9.2-13.5-13.56-6.12-5.86-11.81-12.12-17.87-18.04.57-3.43 1.38-6.8 2.33-10.15 6.26-24.43 12.88-48.79 19.34-73.17 25.48-95.13 50.91-190.27 76.37-285.4.38-2.03 2.21-2.21 3.91-2.63 3.73-.44 7.6-.14 11.34.06-.16-1.62-.32-3.24-.47-4.86.4 1.55.78 3.11 1.16 4.68 26.71-.21 53.55.16 80.32-.04 8.72.38 17.13.32 25.86.14 1.51-4.05 2.31-8.37 3.55-12.51 2.11-9.16 4.81-18.15 7.15-27.25.44-1.11.76-2.44 2.29-2.09" fill="#302f3c"/><path d="M415.54 84.41c14.29.31 28.56.06 42.84.95-3.47 12.12-6.3 24.42-9.67 36.57-5.57.34-11.13.21-16.7 0-8.99-.13-17.99-.03-26.98-.01 3.63-12.43 6.54-25.2 10.51-37.51" fill="#edb88f"/><path d="M462.06 88.84c3.93 7.38 7.99 14.68 12.21 21.89.94 1.7 2.06 3.56 2.41 5.49-.04 1.88-.62 3.79-1.02 5.63-7.61 0-15.21.31-22.82.29 3.42-11.02 5.76-22.3 9.22-33.3" fill="#ab583a"/><path d="M283.05 126.48c4.28.01 8.56 0 12.84.04.64 1.77 1.28 3.53 1.95 5.28-.38-1.81-.78-3.62-1.19-5.43 24.77.01 49.59.12 74.35-.02 17 .1 34.02.2 51.03-.09 18.32.22 36.66.17 54.98-.07 33.05.39 66.12-.11 99.11-.4-8.61 32.32-17.86 64.71-26.21 97.08-3.1 10.14-5.48 20.47-8.48 30.64-4.07 16.5-9.04 32.76-13.03 49.29-5.93 20.97-11.42 42.08-17.14 63.11-10.48-6.77-22.85-9.58-35.24-9.1-16.26.61-32.75 5.7-46.08 15.14-7.86 5.74-14.59 12.88-18.87 21.7-3.7-11.73-16.45-18.83-28.09-20.01-11.25-.33-22.41 4.31-30.09 12.56-7.78-5.42-17.89-6.73-26.67-3-4.87 1.98-8.43 5.47-11.79 9.39-5.62-4.05-11.25-8.08-16.9-12.1-7.91-5.22-16.79-9.4-25.14-13.89-8.91-4.74-18.18-8.54-27.37-12.63-6.74-3.68-13.59-6.01-21.13-7.44 6.83-25.13 13.7-50.27 20.32-75.45 3.05-10.68 5.44-21.52 8.67-32.15 4.45-16.29 8.49-32.69 13.08-48.94 5.8-21.14 11.21-42.39 17.09-63.51m295.87 5.51c1.47 4.57 2.71 9.16 2.82 14 .16 6.42.68 12.36-2.4 18.23-2.45 4.81-5.94 10.18-12.11 9.51 1.57-5.84 3.3-11.65 5.01-17.45 2.37-8.07 4.25-16.24 6.68-24.29" fill="#34a2ff"/><path d="M472 138.15c5.35-.27 10.66.16 16 .06 6.85-.02 13.13-.45 19.6 2.24 4.38 2.02 8.23 5.36 8.28 10.56.5 3.72-1.1 5.76-3.69 8.13 3.54.9 7.64 1.81 10.6 4.06 2.23 1.53 3.47 4.77 2.8 7.37-1.9 2.46-5.21 3.98-8.1 4.93-5.58 1.7-10.63.01-16.4.45-4.04.31-8.06.41-12.1.32-14.66-.41-29.34.11-43.99-.38-8.02-.2-16.05.16-24.07 0-5.31-.13-9.68-2.82-13.49-6.3-2.49-2.4-2.42-6.01-.65-8.81 2.39-4.4 7.76-6.45 12.39-7.46 7.6-1.35 15.5-1.47 23.19-.9-.69-2.2-1.93-3.99-1.45-6.37.78-3.51 3.79-5.92 7.25-6.55 7.64-1.37 16.07-1 23.83-1.35" fill="#302f3c"/><path d="M585.26 138.73c3.49 5.99 6.36 12.71 10.9 17.97-7.12 24.95-13.86 50-20.6 75.05-23.59 87.41-47.05 174.86-70.51 262.3-2.49 8.16-3.78 16.52-5.51 24.85-5.34-9.62-10.92-19-16.91-28.23 1.69-7.8 4.07-15.4 5.92-23.16 4-13.87 7.46-27.88 11.26-41.8 4.37 3.11 10.14 2.95 13.81-1.09 2.6-3.54 4.75-8.13 4.64-12.6-.4-8.6-2.75-17.24-8.25-24.02 3.29-13.5 7.14-26.87 10.61-40.32 1.25.63 2.51 1.3 3.8 1.84 2.97 1.5 7.09.28 9.83-1.27 4.38-2.55 5.95-7.11 7.3-11.7 3.69-13.56-.88-28.57 3.62-41.56 1.8-5.45 5.38-10.55 8.44-15.4 2.26-3.38 3.68-7.02 5.33-10.7 4.35-8.75 3.17-20.29.59-29.42-1.22-5.07-3.36-9.49-6.34-13.75 4.72-16.37 8.57-32.99 13.26-49.36 2.12.44 4.27 1.79 6.38.72 4.82-2.29 8.9-6.45 10.85-11.46 3.61-7.14 2.92-16.36 2.03-24.09-.15-.94-.29-1.87-.45-2.8m-124.27 4.21c10.02-.85 19.95-.04 30.03-.31 5.49.09 12.45-.22 17 3.38 2.34 1.67 3.87 4.02 3.22 7-1.64 3.13-5.51 3.52-8.62 3.99-.01 1.44-.01 2.87-.02 4.3 3.29 1.55 6.77 2.09 10.31 2.74 3.23.65 5.72 2.31 8.48 4.01-1.78 1.58-3.17 3.18-5.61 3.67-3.46.65-7.27.2-10.78.13-4.33-.19-8.62.13-12.94.29-20.29-.13-40.62.15-60.92.29-3.89-.17-7.87-.33-11.7-1.1-3.91-.84-6.76-3.4-9.78-5.84 1.92-3.99 3.99-6.21 8.39-7.36 12.11-2.78 26.24-.69 38.59-1.7 2.19-.24 2.72-1.91 3.88-3.48-3.88-1.05-7.95-.82-11.82-1.77-2.4-.58-2.74-3.41-3.59-5.31 5.06-2.67 10.31-2.69 15.88-2.93" fill="#ffecda"/><path d="M443.5 207.72c6.49-1.03 13.41-.39 19.47 2.22 13.31 5.81 21.74 19.68 21.84 34.06.44 18.35-11.04 36.44-27.65 44.12-10.98 4.83-23.66 5.13-34.13-1.17-13.53-8.13-19.77-24.61-16.99-39.89 2.84-19.06 18.12-36.23 37.46-39.34" fill="#302f3c"/><path d="M443.5 211.61c11.22-2.07 23.6 2.15 30.55 11.34 5.53 7.04 7.75 16.2 7 25.04-.97 16.49-12.44 32.58-28.2 37.98-7.98 2.66-17.36 2.87-25.04-.89-4.74-2.07-8.56-5.1-11.63-9.25-6.66-8.76-8.37-20.17-6.12-30.79 3.41-16.49 16.64-30.52 33.44-33.43" fill="#ffcb00"/><path d="M551.79 231.62c4.85 9.8 7.38 21.94 4.46 32.66-2.36 6.6-5.58 12.75-9.29 18.69-3.83 6.29-6.12 13.25-7.3 20.5-.57 4.47-.11 9.01-.47 13.52-.64 8.72-.3 16.64-4.68 24.54-1.24 2.41-3.44 3.64-6.03 4.12-2.3.68-4.57-1.31-6.51-2.33 9.75-37.2 19.75-74.59 29.82-111.7" fill="#34a2ff"/><path d="M339.01 294.73c5.09.14 10.18.26 15.26.64 4.87.3 10.4.47 14.99 2.24 3.67 1.26 6.14 5.4 7.19 8.93 1.52 4.89-3.52 9.75-7.87 10.87-9.11 1.89-18.42.37-27.57.66-7.37.1-14.61 1.28-22.01 1.04-8.28-.23-16.76.57-24.98-.44-4.8-.56-9.67-3.3-11.55-7.92-.54-2.68.46-5.89 2.61-7.64 2.79-2.42 6.36-4.06 9.84-5.24 6.56-2.12 13.32-.94 20.11-1.36 7.94-.36 16.06-2.01 23.98-1.78" fill="#302f3c"/><path d="M335.99 299.25c7.65.18 15.35.49 22.98 1.09 3.14.36 6.66.75 9.48 2.25 1.85 1.32 2.9 3.9 4.06 5.8-1.75 2.22-3.02 4.45-5.96 5.21-7.64 2.05-15.83 2.09-23.65 1.34-8.02-.83-15.86-.03-23.86-.33-6.7-.15-13.41.14-20.1.22-4.19.08-8.8-1.07-11.63-4.37-.8-2.57.68-4.15 2.76-5.37 6.09-4.02 14.9-4.17 21.97-4.52 7.98-.33 15.97-.89 23.95-1.32" fill="#ffecda"/><path d="M222.89 350.47c19.3 5.24 38.17 14.43 55.65 24.05 22.42 13.49 45.59 29.19 63.32 48.59 4.4 4.58 7.61 9.99 11.75 14.77 10.78-2.38 21.57-4.58 32.5-6.08 21.64-2.64 44.06-4.55 65.85-3.07 13.73.61 27.58 2.4 40.94 5.68-2.44 10.21-5.66 20.2-8.12 30.41-1.93 8.43-4.6 16.64-6.64 25.04-9.71.23-19.43-.09-29.14.03-25.05.23-49.98-.29-75 .2-8-.01-16-.26-24-.22-12.67.33-25.33-.26-38.01.14-13-.27-25.98.31-38.99-.09-13.67.42-27.33.08-41 .27-15.64.21-31.32-.25-46.95.47 12.86-46.64 25.29-93.46 37.84-140.19" fill="#93c368"/><path d="M481.01 361.52c10.33.5 20.38 2.99 28.93 9-.92 4.12-1.91 8.22-3.09 12.28-4.45 15.63-8.43 31.4-12.75 47.06-3.61-.9-7.22-1.77-10.88-2.39-27.55-4.83-56.43-4.75-84.19-1.84-14.63 1.57-29.26 3.97-43.58 7.38-9.41-14.6-23.9-26.69-37.14-37.78 5.18-6.85 13.09-10.56 21.72-9.4 5.38.64 9.13 3.59 13.34 6.69 3.72-3.71 6.48-7.55 11.34-9.84 6.06-2.94 13.33-5.03 20.1-4.19 8.01 1.13 15.53 5.95 20.07 12.62 2.27 3.4 2.36 6.99 3.74 10.69l1.54 1.23c2.89-3.72 3.98-8.26 6.7-12.14 7.69-11.6 19.84-19.27 32.57-24.3 10.06-3.48 20.92-5.57 31.58-5.07" fill="#09892a"/><path d="M553.87 390.81c7.46 18.3 15.45 36.32 22.63 54.71 6.21 13.95 11.78 28.18 17.65 42.26 16.02 38.45 32.21 77.73 48.33 116.04-8.76 5.94-16.94 12.63-25.79 18.44-24.85-61.07-49.79-121.49-74.69-182.27-1.48-3.14.33-6.7 1.09-9.85 3.65-13.09 7.29-26.19 10.78-39.33" fill="#ab583a"/><path d="M508.4 393.57c3.73 6.07 5.56 13.1 5.05 20.21-.54 3.2-2.16 6.87-4.8 8.87-2.44 1.53-5.22-.24-7.66-.94 2.21-9.44 4.93-18.76 7.41-28.14" fill="#09892a"/><path d="M539.1 444.9c2.38 5.62 4.69 11.26 6.93 16.94-5.34 5.15-10.57 10.42-16.08 15.39 3.03-10.78 6.11-21.54 9.15-32.33" fill="#ab583a"/><path d="M547.51 465.19c14.74 35.73 29.22 71.51 44.08 107.18 6.89 17.26 14.06 34.42 21.23 51.57-11.56-.05-23.14-.01-34.69-.47-4.4-11.65-9.4-23.04-13.97-34.62-7.95-18.84-15.28-37.92-23.32-56.72-5.77-14.28-11.5-28.6-17.54-42.77 7.38-7.27 14.74-14.58 22.02-21.95z" fill="#edb88f"/><path d="M186.69 493.7c7.12.37 14.2.6 21.33.25 28.67.56 57.4.14 86.09.39-1.4 2.69-2.6 5.75-5.27 7.44-3.76 2.36-8.41 3.58-12.84 3.46-12.17-.62-21.89-5.6-34.13-3.51-7.47.8-13.1 5.31-20.32 6.75-4.22.92-8.18 1.74-12.45.5-3.68-1.12-7.38-2.46-10.74-4.36-3.71-2.07-6.47-5.49-9.41-8.53-.75-.8-1.51-1.59-2.26-2.39" fill="#93c368"/><path d="M300.31 494.49c3.84-.47 7.82-.13 11.69-.23 14.1.14 28.19.06 42.28.05 2.59 3 4.86 6.02 8.21 8.23 5 3.11 9.91 5.95 15.78 7.02 7.27 1.08 14.49 1.41 21.64-.64 9.57-2.48 20.47-6.58 26.91-14.46 17.75-.23 35.51.01 53.25-.11 3.02 5.73 6.78 10.98 9.87 16.68 1.94 3.53 4.1 6.92 6.25 10.32-10.07-.09-20.1 1-30.17 1.09-34.38-.2-68.61-.09-103.02-.21-49.25.19-98.53-.23-147.77.1-2.91-3.17-5.93-6.22-9.12-9.11 7.31 2.11 14.6.82 21.61-1.7 4.06-1.73 7.76-3.84 12.17-4.69 4.94-.93 9.97-1.74 14.9-.45 7.35 1.27 14.86 3.47 22.31 3.54 5.47.2 11.07-2.23 15.54-5.21 3.79-2.68 4.32-7.51 7.67-10.22" fill="#ffecda"/><path d="M420.84 494.52c-12.56 9.13-29.94 13.71-45.15 9.71-5.98-2.19-12.08-5.6-16.91-9.76 20.68-.12 41.39-.25 62.06.05" fill="#93c368"/><path d="M398.16 540.12c.42 1.53.83 3.05 1.25 4.58-42.15-.29-84.33.08-126.48-.35.69-.85 1.39-1.69 2.11-2.51 13.57-.57 27.38-.17 41.01-.64 12.67.33 25.28-.66 37.95-.39 14.72-.24 29.43-.58 44.16-.69m4.17-.07c11.83-.13 23.64-.27 35.46-.96 2.57 10.02 5.14 20.04 7.99 29.97 2.94 9.97 5.19 20.12 8.05 30.1 10.6 38.93 20.54 77.41 31.5 116.14-11.97.03-23.96.21-35.93.07-15.58-58.16-31.5-117.21-47.07-175.32m-170.8 2.56c4.74-.73 9.68-.36 14.47-.53 7.96-.31 15.92-.16 23.88-.47-8.58 32.2-17.34 64.38-25.77 96.61-2.59 9.21-5.16 18.4-7.37 27.7-2.88 9.31-4.95 18.82-7.65 28.18-1.99 7.51-4 15.03-5.78 22.59-13.12.14-26.23.05-39.34.55 3.68-11.65 6.41-23.59 9.8-35.32 2.56-8.92 4.58-17.99 7.24-26.88 7.58-27.89 14.84-55.76 22.53-83.59 2.71-9.55 4.75-19.47 7.99-28.84" fill="#edb88f"/><path d="M443.09 542.07c1.07.61 2.13 1.23 3.19 1.86 11.12 7.65 21.52 16.39 32.44 24.33 1.65 1.25 3.54 2.49 4.83 4.14.92 1.52 1.42 3.35 1.94 5.05 11.17 38.77 21.82 77.79 32.71 116.66-9.57 7.3-19.42 14.22-29 21.51-15.12-57.88-30.64-115.75-46.11-173.55m-170.31 6.82c8.23-.27 16.48.05 24.71-.02-11.8 44.71-23.82 89.38-35.78 134.06-1.2 4.41-1.97 9.04-3.61 13.3-.86 1.81-3.29 2.91-4.9 4.01-8.41 5.12-16.98 9.98-25.45 15.03 8.35-30.91 16.5-61.56 24.96-92.46 3.37-13.75 7.42-27.31 11.02-41 1.38-5.58 2.84-11.11 4.44-16.63 1.62-5.56 2.48-10.9 4.61-16.29" fill="#ab583a"/></svg>
