<svg data-preply-ds-component="SvgTokyoUIIllustration" viewBox="0 0 112 112" fill="none" xmlns="http://www.w3.org/2000/svg"><path d="m86.184 14.94-.052 58.298-14.23 8.39.045-58.297z" fill="#9DC273" stroke="#302F3B" stroke-width=".561" stroke-miterlimit="10" stroke-linecap="round" stroke-linejoin="round"/><path d="m71.948 23.332-.045 58.297-9.317-5.46.045-58.297z" fill="#3D8738" stroke="#302F3B" stroke-width=".561" stroke-miterlimit="10" stroke-linecap="round" stroke-linejoin="round"/><path d="m86.182 14.942-14.236 8.39-9.317-5.46 14.229-8.39z" fill="#9DC273" stroke="#302F3B" stroke-width=".561" stroke-miterlimit="10" stroke-linecap="round" stroke-linejoin="round"/><path d="m67.785 40.755-.052 43.81-14.23 8.383.046-43.802z" fill="#56A0F8" stroke="#302F3B" stroke-width=".561" stroke-miterlimit="10" stroke-linecap="round" stroke-linejoin="round"/><path d="m53.55 49.147-.046 43.802-9.316-5.453.044-43.81z" fill="#2151B4" stroke="#302F3B" stroke-width=".561" stroke-miterlimit="10" stroke-linecap="round" stroke-linejoin="round"/><path d="M67.788 40.755 53.55 49.146l-9.317-5.46 14.23-8.391z" fill="#56A0F8" stroke="#302F3B" stroke-width=".561" stroke-miterlimit="10" stroke-linecap="round" stroke-linejoin="round"/><path d="m49.39 59.675-.051 36.214-14.23 8.391.045-36.214z" fill="#FFCD45" stroke="#302F3B" stroke-width=".561" stroke-miterlimit="10" stroke-linecap="round" stroke-linejoin="round"/><path d="m35.155 68.066-.045 36.214-9.317-5.46.045-36.214z" fill="#D48D24" stroke="#302F3B" stroke-width=".561" stroke-miterlimit="10" stroke-linecap="round" stroke-linejoin="round"/><path d="m49.39 59.674-14.237 8.39-9.317-5.46 14.23-8.39z" fill="#FFCD45" stroke="#302F3B" stroke-width=".561" stroke-miterlimit="10" stroke-linecap="round" stroke-linejoin="round"/><path d="m67.787 64.892 4.061 4.12v12.616l-4.106-2.673zM49.428 84.264l4.061 4.12v4.566l-4.098-2.666z" fill="#302F3B"/></svg>
