<svg data-preply-ds-component="SvgTokyoUIIllustration" xmlns="http://www.w3.org/2000/svg" viewBox="0 0 800 801"><path d="M391.04 54.85c3.05.57 5.78 1.9 8.91 2.15 7.1.72 14.02 1.42 21.01 2.98 6.96 1.59 13.74 2.46 20.55 4.64 2.78.88 5.62 1.42 8.49 1.91 4.93.83 9.09 3.32 14 4.53 5.84 1.48 11.26 4.11 16.99 6.12 5.24 1.85 10.03 4.61 15.17 6.68 6.21 2.45 12 5.95 18.01 9 8.05 4.11 15.3 9.4 23.09 13.94 13.32 9.92 26.25 20.14 37.52 32.41 8.88 8.66 16.44 18.43 23.37 28.68 4.77 7.1 8.66 14.73 11.18 22.92 7.68 22.19 9.81 45.99 6.67 69.25-1.56 11.34-3.57 22.41-7.65 33.16-3.67 10.13-8.41 19.94-13.98 29.16-3.43 4.67-5.76 10.03-7.13 15.64-.84 6.78.45 14.25 1.52 20.97 1.26 9.11 5.76 18.11 7.9 27.08 1.46 6.23 4.57 11.77 6.14 17.94.99 3.77 2.62 7.14 3.25 10.98 1.21 7.98 2.68 15.32-1.03 22.93-2.66 6.79-9.01 11.25-15.82 13.2-7.95 1.75-16.75.08-24.53 2.4-1.71 4.01-2.82 8.09-2.6 12.49.26 9.21 5.24 15.76 7.71 24.16-1.19 7.01-4.79 12.26-9.29 17.56.43 4.29.9 8.55 1.81 12.77.65 3.68.95 7.13-1.6 10.17-3.49 5.51-9.46 7.73-13.27 12.83-2.34 3.18-2.69 6.94-1.72 10.71 2.34 9.28 2.57 19.21-1.4 28.08-4.44 6.98-10.87 13.42-18.79 16.27-8.4 3.01-17.64 4.01-26.51 3.09-6.93-.71-14.03.36-21.01.36-11.17.08-22.19 2.3-32.59 6.34-7.71 3.39-14.91 8.35-21.27 13.83-5.56 5.75-10.95 11.82-15.7 18.27-5.42 8.13-9.52 17.46-13.4 26.41a100.8 100.8 0 0 0-6 32.16c-.04 3.69-.56 7.18-2.65 10.3-2.19 3.1-5.77 4.9-9.45 5.47-2.31.08-4.73-1.04-6.84-1.88-63.6-26.04-128.08-52.44-191.58-78.6-8.91-3.85-18.46-5.85-27.51-9.38-5.03-2.05-10.5-3.23-15.37-5.63-4.63-2.82-5.52-7.39-6.41-12.35-.18-2.44.8-4.47 2.39-6.25 4.23-4.68 9.18-8.85 13.2-13.84 3.43-4.24 6.93-8.39 10.56-12.47 4.7-5.7 8.89-11.88 12.98-18.03 10.63-15.51 17.83-32.62 25.2-49.8 3.38-7.83 4.72-15.63 7.05-24.07 3-10.3 3.27-21.7 3.83-32.49-.18-7.14-.58-14.43-1.75-21.48-1.84-12.25-5.95-24.42-10.35-35.97-1.89-4.89-4.99-8.89-7.36-13.52a192 192 0 0 0-4.66-8.44c-6.18-10.66-10.55-22.26-14.05-34.04-5.33-15.81-9.59-31.84-10.86-48.53-1.31-18.49-1.98-37.67.95-56.03 1.43-6.96 2.17-14.02 3.7-20.96 5.26-18.9 13.26-36.86 23.28-53.71 5.86-9.04 12.12-17.6 19.6-25.38 2.9-2.78 5.78-5.54 8.41-8.59 4.41-5.04 9.64-8.9 14.58-13.45 13.41-11.1 29.43-20.06 44.71-28.29 4.59-2.87 9.63-4.26 14.57-6.3 6.78-3.14 13.8-5.74 20.8-8.33 12.8-4.62 25.79-6.85 39.02-9.69 7.94-1.6 15.93-1.76 23.97-2.65 7.53.01 14.92-1.15 22.04.21" fill="#302f3c"/><path d="M359.99 100.88c7.77-.75 16.24-.22 23.52 2.76 1.65.78 4.99 2.52 4.32 4.76-3.01 1.59-6.2 2.57-8.9 4.73 7.04.01 12.41-2.15 18.96-.44 3.03.82 5.8 1.29 8.97.79-2.96-1.95-6.46-2.99-9.37-4.98-1.92-1.5-.63-3.2-.35-5.13 6.15.22 11.82 2.47 17.78 3.33 6.36-1.49 13.76-4.73 20.27-1.82 1.43 1.53 2.21 3.76 3.21 5.6 4.48-1.28 8.91-2.29 13.61-1.97 6.28.21 12.38 3.4 17.19 7.27 2.96 2.34 3.3 5.47 4.37 8.85 4.81-.18 9.65-1.18 14.45-.96 5.06.18 9.43 3.09 13.49 5.83 3.51 2.37 5.4 5.68 7.57 9.18 3.24.39 7.02.56 9.86 2.32 1.76 1.42 2.79 3.68 4.51 5.11 3.93 1.62 7.71 2.53 10.94 5.53 2.72 2.38 3.03 6.23 4.78 9.2 2.88 1.85 6.37 2.63 9.13 4.82 4.53 3.59 8.14 8.77 9.55 14.39.84 3.13.49 6.48 1.34 9.57 1.42 1.61 3.3 2.86 4.9 4.31 3.97 3.36 6.01 9.03 6.86 14.02.73 4.19-.6 7.66-1.55 11.66 2.84 3.7 4.99 7.62 5.33 12.37.74 4.73-1.06 8.56-1.9 13.04 1.05 3.77 3.08 6.98 3.54 10.96.89 5.71-.45 10.83-2.04 16.25-2.94.97-6.28 1.87-8.87 3.6.77 5.18 3.17 9.54 2.11 14.97-1.14 4.84-4.51 9.33-7.98 12.79-11.16 11.34-29.73 14.72-44.15 8.04-5.66-3.04-11.11-8.28-14.07-13.99-1.24-4.2 2.97-6.18 4.82-9.37-5.17.53-8.9 3.3-14.24 1.86-4.57-.97-6.93-4.05-10.52-6.55-3.34-1.28-7.19-1.11-10.59-2.44-3.4-1.05-5.97-4.54-5.78-8.12.31-2.24 1.8-4.41 2.84-6.4-.56-.39-1.11-.78-1.67-1.17-3.55 2.96-6.99 5.79-11.41 7.37-4.03 1.45-9.06 2.87-13.3 1.68-8.77-3.1-15.87-11.91-15.22-21.49.16-4.33-.29-8.15-2.55-11.91-1.11 5.56-1.16 11.25-4.58 16.06-2.84 3.67-7.82 6.19-12.36 4.07-6.74-3.01-8.38-10.77-14.53-14.5-1.18-.24-2.47-.05-3.67-.05 3.57 4.34 8.1 8.18 10.32 13.35 1.07 2.25 1.54 4.88 2.8 7.02 2.66 2.13 5.82 3.59 8.46 5.77 3.16 2.6 6.04 6.03 6.67 10.2.73 5.03-.56 10.97-4.14 14.73-3.4 3.04-8.13 4.81-12.7 4.86-9.23.38-18.08-3.18-25.97-7.65-4.78-2.67-8.57-6.32-12.67-9.87-5.81 6.1-15.75 7.79-23.59 5.2-17.03-4.68-27.19-24.5-23.56-41.33-4.29-1.29-8.33-2.26-11.63-5.52-9.04-9.04-12.77-23.1-10.01-35.49 1.16-5.75 3.97-10.35 6.25-15.74-3.17-.95-6.7-1.68-9.4-3.66-2.48-1.88-4.48-4.32-6.92-6.27-.34.87-.6 1.76-.77 2.67.73 8.01 3.08 15.1 8.1 21.46-.39 4.18-.98 8.39-1.04 12.59.12 8.06 1.99 15.58 3.1 23.37-2.3.13-4.89.58-7.06-.25-4.3-1.61-7.97-4.44-12.39-5.84 2.83 4.45 7.36 6.64 9.88 11.34 1.24 1.92 1.94 4.63 3.57 6.2 5.29 3.11 10.49 4.77 14.14 10.15 3.3 4.73 3.01 9.58 3.98 14.96 1.4 1.59 3.42 2.72 5.15 3.93 8.29 5.52 15.24 12.91 19.7 21.86 4.77-2.71 9.55-5.04 15.08-5.66 7-.83 14.87.01 21.48 2.49 8.11 3.34 11.73 11.44 19.94 13.1 7.54 2.01 16.57 1.39 23.12-3.13 3.88-2.68 5.89-6.41 8.12-10.41 3.98.74 7.82 1.31 11.87.55 3.69-.58 6.48-2.56 9.45-4.65 4.19 2.25 8.18 4.26 13.06 4.38 3.84.26 6.87-1.33 10.48-1.99 5.57 6.13 11.36 11.65 19.06 15.03 3.72 1.9 8.5 2.64 10.96 6.05 3.53 4.17 3.47 10.6 1.42 15.42-2.32 4.95-6.22 9.26-10.73 12.31-3.7 2.49-7.65 3.12-11.86 4.33 1.29 3.52 2.75 6.6 1.76 10.46-1.72 6.53-7.09 12.01-12.82 15.3-4.37 2.9-10.15 3.88-15.29 4.26-5.74.5-9.78-2.6-15.26-.81-8.73 2.81-18.77.5-27.27-2.21-5.44-1.72-9.08-5.32-13.72-8.31-3.11-2.11-7.07-2.39-10.72-3.15-8.17-1.39-16.07-3.6-23.25-7.88-2.02-.97-4.32-2.85-6.64-2.03-4.07 1.08-7.88 3.19-12.32 3.7-4.78.49-9.34-.96-13.48-3.26-3.9-2.22-6.8-5.67-10.59-8.36-9.08-6.59-21.89-7.91-32.52-4.98-7.8 2.07-15.04 4.03-23.23 3.11-3.41-.38-6.56-2.25-9.94-2.53-3.73.52-7.28 1.92-11.05 2.31-6.58.92-13.23-.98-18.93-4.22-3.63-2.13-6.1-5.12-8.97-8.11 3.55.31 6.89.69 10.41-.1 5.44-1.2 9.84-3.95 14.35-7.06 4.28 2.07 8.26 4.08 13.13 4.23 7.03.1 14.11-.74 21-2.1 3.86-.9 7.9-2.34 11.09-4.75 2.85-2.01 2.15-6.83-.16-8.96-2.54-1.97-6.91-1.31-9.94-1.27-9.21.4-17.17-2.49-25.63-5.61 1.53 2.26 3.08 4.45 5.15 6.27 4.03 3.56 8.98 5.66 13.21 9.03-3.77.76-7.26 1.46-10.97-.05-6.27-2.07-9.06-7.63-13.97-11.37-2.95.97-5.58 2.94-8.41 4.25-7.91 3.9-18.17 4.05-25.6-1.05-5.49-3.75-7.55-11.2-8.38-17.44-.49-9.15 2.89-18.59 9.22-25.25 2.69-3.03 5.88-5.56 8.47-8.65-1.29-1.62-3.32-.48-4.78.27-5.53 3.38-9.18 8.32-12.34 13.87-1.93-4.2-4.05-8.37-4.04-13.11.01-3.85 1.47-7.17 3.36-10.45 2.19 1.71 4.24 5.66 7.53 4.13-1.72-2.86-4.43-5.26-4.9-8.63-.62-5.29 1.04-10.96 3.5-15.62 2.05-3.74 5.32-7.76 9.56-9 2.73.52 4.84 2.12 5.68 4.81 1.4 4.42 1.98 9.04 3.58 13.41 1.44-3.41 2.07-7 2.87-10.59 2.71-11.69 9.81-22.48 19.88-29.1 8.86-5.49 18.47-6.87 28.63-7.92-1.15-1.93-1.99-4.42-4.21-5.38-4.32-1.92-9.81-1.04-14.39-.67-4.54.56-8.65.2-13.07-.9-.46-2.15-1.42-4.75-.86-6.93 1.33-4.65 3.22-8.93 7.42-11.68 5.17-4.09 12.07-4.9 18.3-3.11 5.48 2.09 8.93 6.12 12.37 10.66.72.8 1.93 2.47 3.07 1.34 5.93-4.21 11.2-9.5 16.36-14.6 4.01 2.21 7.77 4.35 12.44 4.76 4.1.26 8.42-1.08 12.25-2.4 3.6 4.25 7.01 7.93 12.85 8.73 2.84.62 4.58-.85 6.68-2.44-2.91-1.27-5.85-1.77-8.09-4.07-3.38-3.42-6.95-7.25-7.31-12.31-.69-5.2 1.69-9.07 2.92-13.96-4.15 2-5.48 5.48-7.14 9.47-1.73 4.84-8.26 5.29-12.35 3.67-3.3-1.76-3.9-4.69-3.84-8.18-.36-2.32.76-5.31-1.77-6.58-2.33 5.69-2.65 11.44-5.95 16.89-3.01 4.97-8.58 7.67-14.33 7.44-5.15.3-10.36-4.33-9.79-9.66.43-5.4 3.75-10.61 7.64-14.25 5.72-4.95 12.12-9.95 19.1-12.96 6.44-2.84 12.89-2.83 19.92-4.95-2.47-1.52-5.35-2.39-7.71-4.06-2.06-1.99-1.06-4.32.84-5.94 7.69-6.62 19.96-9.3 29.35-5-1.36 2.57-3.26 4.78-4.65 7.34 4.13-.86 7.78-2.93 11.89-3.85 3.65-.89 7.1-.95 10.1-3.58-4.38-.35-8.74 0-13.13-.15-.16-.9-.33-1.8-.49-2.7 5.7-3.4 11.23-6.48 17.98-7.13" fill="#ff70ad"/><path d="M362.49 119.12c-4.27 2.63-8.95 2.95-13.51 4.77-4.41 1.64-8.56 3.81-12.01 7.06-2.11 1.68-3.83 3.99-6.71 4.11-.3-1.65-.68-3.12.06-4.72 2.37-6 7.65-9.68 13.68-11.43 6.32-1.59 12.35-2.83 18.49.21" fill="#302f3c"/><path d="M274.58 136.1c-2.12 7.78-8.04 16.08-16.03 18.55 1.73-8.01 7.92-16.24 16.03-18.55" fill="#ff70ad"/><path d="M404.71 136.64c5.43.5 9.82 3.6 15.26 4.19 5.39.84 10.22-.36 15.56-.63-1.95 2.66-3.92 5.05-7.14 6.18-5.73 2.32-13.63 2.84-18.84-.97-3.01-2.11-4.5-5.15-4.84-8.77m-53.73 6.17c2.85.86 6.42 1.45 7.01 4.91-3.58-.13-7.39-2.29-10.88-1.66-4.99.93-5.19 8.06-10.02 9.04-2.58.38-6.54-.45-5.78-3.89.76-4.39 5.08-4.43 8.53-5.48 3.62-2.01 6.77-4.08 11.14-2.92m.15 35.45c4.35 2.3 6.4 7.17 10.44 10.14 8.99 7.02 19.61 12.12 30.53 15.35 3.64 1.13 7.03 1.34 9.74 4.34-8.43 1.69-17.18-2.67-25.86-1.31-6.61.99-9.47 5.62-14.73 8.73-.25-3.92.33-7.58-.42-11.47-1.07-5.58-2.91-11.15-5.82-16.05-1.81-3.06-3.34-6.17-3.88-9.73m79.52 9.72c4.28 3.09 7.55 6.73 12.65 8.65 3.83 1.48 8.04 1.78 11.88 3.41l-.12 1.89c-7.38 2.79-16.29 1.97-21.27-4.74-1.54-2.27-5.32-6.55-3.14-9.21" fill="#302f3c"/><path d="M227.44 200.53c1.12-.4 2.31-.65 3.55-.73 1.23 1.14 2.43 1.88 1.54 3.71-1.75 4.63-5.51 9.79-10.04 11.98-3.64 1.1-5.94-3.3-4.21-6.21 2.06-3.55 5.29-7.17 9.16-8.75" fill="#ff70ad"/><path d="M330.08 209.38c1.97 2.27 3.28 5.08 5.34 7.24 2.46 1.95 5.86 2.62 8.51 4.36-.67 4.15-2.25 7.64-1.69 12 .71 5.29 3.35 10.93 8.05 13.77 2.73 1.72 5.92 1.81 9.04 2.3.15.67.31 1.34.47 2.01-3.66 1.99-7.49 4.31-11.81 4.11-6.08-.06-11.46-5.05-13.89-10.32-2.1-4.7-1.3-10.88-.89-15.89-1.78-2.61-4.15-5.69-4.46-8.91-.28-3.58.26-7.25 1.33-10.67m-85.52 13.5c-.73 5.48-2.85 9.63-2.39 15.08.97 7.9 3.35 15.52 8.35 21.83-4.56 6.17-5.7 14.8-4.76 22.23.72 6.56 4.1 11.15 6.74 16.96-4.49-.34-8.73-1.28-12.28-4.22-6.21-5.34-9.42-13.7-9.6-21.76 0-5.06 1.83-9.46 2.79-14.29-.66-4.3-2.57-8.21-2.37-12.72-.13-9.51 4.96-18.75 13.52-23.11m206.7 1.55c4.35 3.35 7.58 7.2 12.28 10.03 3.25 1.93 6.78 3.47 10.36 4.67 4.68 1.52 9.24 1.39 14.08 1.21 3.28 2.28 6.55 4.33 10.54 5.12 2.46.76 5.42.64 6.98 2.96 4.4 5.52 8.58 12.62 14.56 16.54 3.54 2.53 7.64 2.79 10.55 6.26-2.22-.22-4.74-.25-6.87-.98-8.19-3.55-14.2-9.28-20.14-15.74-2.9.62-5.64 1.45-8.62.89-3.94-.63-6.96-2.57-10.33-4.51-3.27 1-6.16 2.13-9.67 1.64-7.27-1.03-13.75-5.62-18.03-11.49-3.51-5.04-6.35-10.23-5.69-16.6m-188.14 49.11c6.1 6.61 12.21 12.68 20.09 17.21 2.66 1.66 5.51 2.77 6.81 5.84-3.1 1.36-6.36 2.03-9.69 1.05-8.52-2.55-15.63-9.1-18.32-17.65-.84-2.43.15-4.29 1.11-6.45m26.13 38.54c3.25.19 5.98 3.3 8.9 4.7 7.81 4.45 15.82 4.86 24.47 6.17-2.89 4.94-6.94 6.98-12.61 7.13-7.3.67-14.29-2.72-18.7-8.48-1.91-2.72-2.34-6.28-2.06-9.52m39.84 9.82c6.75.59 13.48.98 20.23 1.41-2.67 4.15-7.55 4.96-12.13 4.33-3.55-.7-5.96-2.97-8.1-5.74m128.34.11c2.25.37 2.62 2.24 3.14 4.14 1.23 6.36.42 13.2-2.4 19.04-1.13 2.18-2.98 4.72-5.39 5.53-4.73 1-9.45-.63-12.99-3.82 2.78-2.13 5.76-3.37 8.3-5.8 2.74-2.58 5.07-5.96 6.51-9.44 1.28-3.16 1.61-6.49 2.83-9.65m-24.46 12.37 1.52.17c1 2.85-1.24 5.02-2.86 7.09-2.62 3.09-5.98 3.44-9.68 4.43-2.16-1.34-4.32-2.67-6.3-4.28 2.72-1.91 6.07-1.82 9.34-2.94 2.89-.85 5.39-3.32 7.98-4.47m-78.71 9.19c3.05 1.62 6.22 3.64 9.73 3.9 3.7.06 7.5-1.77 10.8-3.29 4.03 3.83 8.4 6.91 14.21 6.89 3.83.1 6.91-1.41 10.32-2.91 2.42 2.84 5.12 6.17 8.39 8.04 4.64 2.38 10.1 3.21 15.26 2.65 4.22-.57 7.29-2.84 10.85-4.93-.3 3.1-.51 6.04-2.07 8.82-2.39 4.74-7.69 6.95-12.73 7.4-4.83.62-9.45-.45-13.85-2.4-4.35-1.77-7.46-5.18-10.71-8.44-6.83 3.47-14.77 4.37-21.87 1.1-4.28-1.91-7.11-5.08-10.3-8.37-4.48.37-8.85.67-13.27-.35-5.35-1.21-10.93-2.34-15.29-5.88 7.19.14 13.78.96 20.53-2.23" fill="#302f3c"/><path d="M294.45 354.92c4.17 3.05 7.52 6.9 11.79 9.84 8.07 5.46 16.88 9.37 26.77 9.54 7.42.43 13.85-2.15 20.3-5.5-3.05 3.94-5.95 7.62-10.35 10.15-9.38 5.61-20.8 6.2-31.16 3.24-7.23-2.51-14.1-6.25-20.44-10.53-2.36-1.53-4.86-3.29-7.5-4.25-5.2 1.09-8 6.8-8.65 11.62-.73 5.2.79 9.78 2.86 14.45-13.5-.37-25.56-5.93-34.94-15.56 7.01.24 13.68.13 19.44-4.42 4.49-3.31 4.98-8.91 6.38-13.91 2.91.39 6.12 1.06 9.05.74 5.92-.76 11.05-3.07 16.45-5.41" fill="#ff70ad"/></svg>
