<svg data-preply-ds-component="SvgTokyoUIIllustration" viewBox="0 0 112 112" fill="none" xmlns="http://www.w3.org/2000/svg"><path d="m102.495 30.094-4.942 48.389-24.879 20.108L9.34 83.354l.102-1.93L72.73 96.65l23.633-19.304 4.41-46.253-55.538-9.2 1.433-1.018z" fill="#858499"/><path d="m96.325 77.3 4.45-46.207-55.764-9.08-4.62 44.093L9.754 81.458l62.881 15.134z" fill="#C3BDC5"/><path d="m100.79 31.099-4.433 46.23-56.025-11.287" fill="#C3BDC5"/><path d="m48.194 24.649-4.428 39.613 49.921 9.758v1.103L41.926 64.859l4.846-40.715z" fill="#858499"/><path d="m97.813 32.73-4.11 41.187-49.922-9.758 4.53-39.711z" fill="#91C168"/><path d="M91.011 78.983 72.706 93.738 16.738 80.63l24.024-12.975z" fill="#858499"/><path d="m90.918 78.93-.029.575-18.016 14.876-56.229-13.29.097-.46 55.968 13.107z" fill="#2F2F3B"/><path d="m48.287 24.546-.068 2.504 49.162 8.247.414-2.463z" fill="#0C872B"/><path d="m40.422 66.054 55.9 11.246M42.23 64.83 93.72 75.1M46.754 24.282l51.042 8.471M43.734 64.29l49.967 9.696m4.063 2.291L72.68 96.627 9.438 81.452l30.987-15.398" stroke="#2F2F3B" stroke-width=".283" stroke-linecap="round" stroke-linejoin="round"/><path d="M97.47 78.443 72.68 98.528 9.438 83.353m88.325-7.076-.294 2.166M44.932 21.927l-4.53 43.909M96.351 77.38l4.422-46.287-55.843-9.166m57.542 8.127-55.816-9.127m51.106 55.351 4.71-46.224M42.106 64.83l4.648-40.548m-3.039 40.003 4.575-39.74M93.719 75.1l4.076-42.347m2.978-1.66 1.699-1.04M44.965 21.91l1.693-.983M42.23 64.83l1.427-.528M9.438 83.354v-1.902" stroke="#2F2F3B" stroke-width=".283" stroke-linecap="round" stroke-linejoin="round"/><path d="m40.581 67.697 50.385 11.176-18.26 14.847-56.07-13.14zm-3.768 2.136 50.945 11.539M32.094 72.28 83.827 84.6m-57.05-9.437 52.883 12.79M21.95 77.828l54.405 12.82M78.406 79.2l3.703-2.245m-10.086.815 3.828-2.159m-10.148.724 3.828-2.16m-9.246.965 3.658-2.211m-9.177.948 3.827-2.16m-9.46.856 3.72-2.165m-9.4.907 3.618-2.068M76.79 82.802l4.189-2.837M70.426 81.36l4.524-2.83m-10.762 1.285 4.444-2.722m-9.922 1.522 4.35-2.803m-9.665 1.436 4.297-2.613m-9.902 1.269 4.166-2.579m-9.811 1.367 4.206-2.613M70.625 85.72l4.648-3.153m-10.957 1.631 4.96-3.021M58.02 82.67l4.874-2.964m-10.117 1.649 4.734-2.918m-10.14 1.626 4.756-2.976m-10.4 1.655 4.83-2.953m-10.409 1.637 4.807-2.998m-4.807 10.666 4.275-2.866m10.765 6.462 4.37-2.884m9.907 2.217 3.612-2.527m-11.847.643 3.698-2.66M36.59 81.16l3.788-2.59m-11.148.93 3.856-2.769m14.988-49.773 49.429 8.15M72.68 96.627v1.775m.113-4.699v.448M90.96 78.989v.447m.002 0L72.844 94.323M16.617 80.677v.448m0 0 56.178 13.239" stroke="#2F2F3B" stroke-width=".283" stroke-linecap="round" stroke-linejoin="round"/><path d="m82.803 38.399.114 1.792-.334 3.406-.663 8.38-.657 6.932-.498 5.64-1.653.506 2.372-23.974.108-1.505-.442-1.005-1.32-.281-22.256-3.687-2.531-.391 1.432-.781 1.433.052 22.97 3.687 1.263.339z" fill="#0052B9"/><path d="m78.891 65.055-27.426-5.14 2.366-24.64.329-.73.883-.333 1.268.224 23.905 3.911.934.224.385.724-.05 1.786z" fill="#35A0FD"/><path d="m55.705 37.842-1.104-.224L52.84 58.96l25.009 4.583.164-.838-24.018-4.36z" fill="#0052B9"/><path d="m55.87 37.733-1.874 20.613 24.018 4.36 2.038-20.895z" fill="#FFEAD8"/><path d="m58.926 44.797-.063 1.138 16.573 2.74.096-1.259zm-.278 2.522-.062 1.137L75.158 51.2l.091-1.263zm-.308 2.653-.063 1.132 16.573 2.745.09-1.263z" fill="#858499"/><path d="m53.762 36.573 27.579 4.445" stroke="#2F2F3B" stroke-width=".283" stroke-linecap="round" stroke-linejoin="round"/><path d="M55.393 35.71c.156 0 .283-.143.283-.32s-.127-.322-.284-.322-.283.144-.283.321.127.322.283.322" fill="#FFC800" stroke="#2F2F3B" stroke-width=".283" stroke-linecap="round" stroke-linejoin="round"/><path d="M56.65 35.883c.157 0 .283-.144.283-.321s-.126-.322-.283-.322-.283.144-.283.322c0 .177.127.321.283.321" fill="#FF70AB" stroke="#2F2F3B" stroke-width=".283" stroke-linecap="round" stroke-linejoin="round"/><path d="M57.975 36.09c.156 0 .283-.144.283-.322 0-.177-.127-.321-.284-.321s-.283.144-.283.321.127.322.283.322" fill="#0052B9" stroke="#2F2F3B" stroke-width=".283" stroke-linecap="round" stroke-linejoin="round"/><path d="m51.56 59.943 27.5 5.158 2.553-25.3a1.324 1.324 0 0 0-1.093-1.448l-25.212-4.141a1.313 1.313 0 0 0-1.512 1.183l-2.265 24.467" stroke="#2F2F3B" stroke-width=".283" stroke-linecap="round" stroke-linejoin="round"/><path d="m75.465 48.651-16.63-2.682.075-1.126 16.629 2.682zm-.284 2.441-16.646-2.584.068-1.126 16.646 2.584zm-.312 2.562-16.646-2.585.068-1.126 16.646 2.59z" stroke="#2F2F3B" stroke-width=".283" stroke-linecap="round" stroke-linejoin="round"/><path d="m54.56 37.63 25.473 4.169-2.084 21.785-25.144-4.67z" stroke="#2F2F3B" stroke-width=".283" stroke-linecap="round" stroke-linejoin="round"/><path d="M54.441 34.373c.063-.035.793-.38 1.41-.672a3.1 3.1 0 0 1 1.8-.264l23.345 3.635c1.217.224 2.129 1.028 1.93 2.527L80.65 64.452l-1.477.637m2.315-24.048 1.32-.47" stroke="#2F2F3B" stroke-width=".283" stroke-linecap="round" stroke-linejoin="round"/><path d="m52.805 58.915 1.11-.517 24.057 4.377m-24.058-4.377 1.92-20.516" stroke="#2F2F3B" stroke-width=".283" stroke-linecap="round" stroke-linejoin="round"/><path d="m69.819 30.094.108 1.786-.329 3.406-.662 8.385-.663 6.927-.492 5.646-1.654.5 2.367-23.968.113-1.51-.441-1.006-1.32-.281-22.257-3.687-2.53-.391 1.432-.781 1.432.057 22.965 3.688 1.269.333z" fill="#DE8700"/><path d="m65.909 56.744-27.432-5.14 2.372-24.64.328-.73.884-.333 1.262.224 23.91 3.912.935.224.385.723-.057 1.792z" fill="#FFC800"/><path d="m42.719 29.531-1.099-.224-1.76 21.349 25.002 4.577.165-.838-24.013-4.354z" fill="#DE8700"/><path d="m42.886 29.422-1.874 20.62 24.012 4.353L67.062 33.5z" fill="#FFEAD8"/><path d="m45.945 36.486-.062 1.138 16.572 2.745.096-1.264zm-.277 2.527-.062 1.132 16.572 2.745.09-1.263zm-.313 2.648-.062 1.137 16.572 2.74.091-1.258z" fill="#858499"/><path d="m40.781 28.262 27.58 4.45" stroke="#2F2F3B" stroke-width=".283" stroke-linecap="round" stroke-linejoin="round"/><path d="M42.408 27.4c.156 0 .283-.144.283-.322 0-.177-.127-.321-.283-.321s-.283.144-.283.321.127.322.283.322" fill="#EB2E72" stroke="#2F2F3B" stroke-width=".283" stroke-linecap="round" stroke-linejoin="round"/><path d="M43.67 27.573c.156 0 .283-.145.283-.322s-.127-.322-.283-.322c-.157 0-.283.144-.283.322 0 .177.127.322.283.322" fill="#0C872B" stroke="#2F2F3B" stroke-width=".283" stroke-linecap="round" stroke-linejoin="round"/><path d="M44.994 27.785c.156 0 .283-.144.283-.322 0-.177-.127-.321-.283-.321s-.283.144-.283.322c0 .177.127.321.283.321" fill="#0052B9" stroke="#2F2F3B" stroke-width=".283" stroke-linecap="round" stroke-linejoin="round"/><path d="m38.58 51.632 27.5 5.158 2.553-25.3a1.324 1.324 0 0 0-1.093-1.448l-25.213-4.14a1.313 1.313 0 0 0-1.511 1.182L38.55 51.552" stroke="#2F2F3B" stroke-width=".283" stroke-linecap="round" stroke-linejoin="round"/><path d="m62.485 40.346-16.63-2.688.074-1.126 16.63 2.688zm-.285 2.435-16.645-2.584.068-1.126 16.646 2.59zm-.312 2.568-16.646-2.59.068-1.126 16.646 2.59z" stroke="#2F2F3B" stroke-width=".283" stroke-linecap="round" stroke-linejoin="round"/><path d="m41.574 29.324 25.478 4.164-2.083 21.785-25.145-4.663z" stroke="#2F2F3B" stroke-width=".283" stroke-linecap="round" stroke-linejoin="round"/><path d="M41.46 26.062c.063-.035.794-.38 1.41-.672a3.1 3.1 0 0 1 1.801-.264l23.344 3.636c1.218.223 2.13 1.027 1.931 2.527L67.67 56.14l-1.478.637m2.316-24.047 1.319-.471" stroke="#2F2F3B" stroke-width=".283" stroke-linecap="round" stroke-linejoin="round"/><path d="m39.824 50.61 1.104-.523 24.064 4.382m-24.066-4.382 1.92-20.516" stroke="#2F2F3B" stroke-width=".283" stroke-linecap="round" stroke-linejoin="round"/><path d="m65.567 13.3 2.316.264 4.84.546c5.42.878 8.947 6.047 8.052 11.47a9.93 9.93 0 0 1-5.045 7.116 9.7 9.7 0 0 1-3.918 1.154 9.5 9.5 0 0 1-2.338-.103l-3.409-.23q-.135.102-.288.212c-1.512 1.098-4.479 2.964-5.674 3.94-.21.173-.555.322-.696.092-.057-.097-.045-.218-.028-.327.249-1.706.48-3.423.82-5.112-4.24-1.677-6.72-6.128-5.939-10.86.9-5.423 6.025-8.484 11.307-8.168z" fill="#00A2FF" stroke="#2F2F3A" stroke-width=".283" stroke-miterlimit="10"/><path d="M74.938 19.767c.844.994.725 1.585 1.523 1.953.651.298 1.523-.173 1.653-.89a1.8 1.8 0 0 0 0-.546c-.118-.873-.458-1.465-1.058-2.102-.374-.39-.969-.936-1.467-1.143s-1.081-.242-1.568-.006c-.374.178-.69.54-.697.96-.017.993 1.06 1.113 1.62 1.774z" fill="#FFE8D5" stroke="#2F2F3C" stroke-width=".283" stroke-miterlimit="10"/><path d="m64.004 32.983-3.68-.764-.453 2.067z" fill="#2F2F3C"/><path d="m51.628 20.232.113 1.786-.328 3.412-.663 8.38-.662 6.927-.493 5.645-1.653.5 2.366-23.968.108-1.51-.436-1.005-1.325-.282-22.251-3.687-2.537-.39 1.433-.782 1.432.058 22.97 3.687 1.269.333z" fill="#EB2E72"/><path d="M47.834 46.848 20.29 41.741l2.367-24.64.334-.724.877-.339 1.269.224 23.904 3.912.94.224.385.73-.056 1.785z" fill="#FF70AB"/><path d="m24.529 19.675-1.098-.224-1.767 21.343 25.009 4.583.164-.838-24.012-4.36z" fill="#EB2E72"/><path d="m24.697 19.56-1.869 20.62 24.012 4.359 2.039-20.9z" fill="#FFEAD8"/><path d="m27.758 26.63-.063 1.132 16.573 2.745.09-1.263zm-.282 2.522-.062 1.137 16.572 2.74.097-1.258zm-.312 2.648-.062 1.137 16.572 2.745.096-1.263z" fill="#858499"/><path d="m22.594 18.406 27.573 4.446" stroke="#2F2F3B" stroke-width=".283" stroke-linecap="round" stroke-linejoin="round"/><path d="M24.22 17.539c.157 0 .284-.145.284-.322s-.127-.322-.283-.322c-.157 0-.284.144-.284.322s.127.322.284.322" fill="#FFC800" stroke="#2F2F3B" stroke-width=".283" stroke-linecap="round" stroke-linejoin="round"/><path d="M25.478 17.717c.157 0 .284-.144.284-.322 0-.177-.127-.322-.284-.322s-.283.145-.283.322.127.322.283.322" fill="#0C872B" stroke="#2F2F3B" stroke-width=".283" stroke-linecap="round" stroke-linejoin="round"/><path d="M26.803 17.924c.156 0 .283-.145.283-.322s-.127-.322-.283-.322c-.157 0-.284.144-.284.322 0 .177.127.322.284.322" fill="#0052B9" stroke="#2F2F3B" stroke-width=".283" stroke-linecap="round" stroke-linejoin="round"/><path d="m20.388 41.77 27.5 5.158 2.553-25.3a1.323 1.323 0 0 0-1.093-1.447L24.136 16.04a1.313 1.313 0 0 0-1.512 1.183L20.36 41.69" stroke="#2F2F3B" stroke-width=".283" stroke-linecap="round" stroke-linejoin="round"/><path d="m44.293 30.485-16.629-2.683.08-1.125 16.628 2.682zm-.28 2.441-16.646-2.59.068-1.126 16.646 2.59zm-.316 2.561-16.646-2.59.073-1.126 16.64 2.59z" stroke="#2F2F3B" stroke-width=".283" stroke-linecap="round" stroke-linejoin="round"/><path d="m23.388 19.463 25.473 4.17-2.078 21.785-25.15-4.67z" stroke="#2F2F3B" stroke-width=".283" stroke-linecap="round" stroke-linejoin="round"/><path d="m48 46.922 1.479-.637 2.276-24.852c.198-1.494-.72-2.303-1.931-2.527L26.48 15.27a3.04 3.04 0 0 0-1.8.264c-.618.293-1.343.638-1.41.672m27.046 6.663 1.32-.471" stroke="#2F2F3B" stroke-width=".283" stroke-linecap="round" stroke-linejoin="round"/><path d="m21.633 40.748 1.11-.523 24.063 4.383m-24.064-4.383 1.92-20.516" stroke="#2F2F3B" stroke-width=".283" stroke-linecap="round" stroke-linejoin="round"/><path d="m87.128 84.76-.413 2.327 10.87-8.604.884-9.172-1.54 1.24-.72 6.87zm6.745-10.74-.187 1.103-19.245-3.865 6.472.281zM48.78 37.86l1.682-2.109-1.11 10.54-1.59.631zm18.296 9.757 1.675-2.107-1.11 10.539-1.59.632zM80 56.09l1.681-2.109-1.115 10.54-1.585.637zm-2.02 6.65-.17.77-6.97-1.281 1.183-.557zm-13.012-8.311-.17.77-6.97-1.287 1.183-.557zm-18.164-9.775-.17.775-6.97-1.286 1.183-.558z" fill="#2F2F3B"/></svg>
