<svg data-preply-ds-component="SvgTokyoUIIllustration" viewBox="0 0 142 142" fill="none" xmlns="http://www.w3.org/2000/svg"><path d="m49.028 47.293.11-3.332-.815-3.642-1.082-2.274-1.746-2.249-2.828-2.358-1.393-1.687-.444-1.2.126-1.493.562-1.016 1.343-.965 1.636-.15 5.563 2.768 3.609 1.93.176-.88.621-2.292.906-2.383-.134-.797-3.776-2.375-3.046-1.62-3.525-1.065-1.955.117-2.14.193-2.568 1.066-1.342 1.141-.982 1.351-.907 1.704-.587 1.62-.285 1.46-.067 1.41.042.973.218 1.645.41 1.544 1.293 2.165 1.469 1.729 1.343 1.392.872.957 1.267 1.863.47 1.78.428 2.626-1.258 4.565-2.283 3.28.772.806 2.459.705 3.415-.352.822-1.3.84-1.47 1.317-2.148z" fill="#2151B4"/><path d="M56.01 24.594a5.06 5.06 0 0 1-.554-2.275 5.08 5.08 0 0 1 5.043-5.093c1.041 0 2.006.302 2.803.83" fill="#0052BA"/><path d="M56.01 24.594a5.06 5.06 0 0 1-.554-2.275 5.08 5.08 0 0 1 5.043-5.093c1.041 0 2.006.302 2.803.83" stroke="#000" stroke-width=".42" stroke-miterlimit="10"/><path d="M67.976 33.161c.05-.033 2.45-1.56 2.501-1.594 6.58-3.6 14.173-5.74 20.644-4.574L71.148 16.89c-5.32-1.083-11.177 2.123-14.542 6.772-2.014 2.786-2.93 6.025-2.786 8.509l2.358 16.548.436-1.812c.025-.067.814-2.224.84-2.291.67-1.788 1.87-3.844 5.11-6.949 1.712-1.636 3.407-3.197 5.412-4.506" fill="#34A1FF"/><path d="M94.57 28.756c-.748-.57-1.645-1.049-2.711-1.401-7.628-2.501-20.585 1.955-28.935 9.96-7.888 7.553-8.836 15.559-2.5 18.538.377.176.763.344 1.191.478 7.628 2.5 20.585-1.955 28.935-9.96 7.175-6.882 8.601-14.124 4.02-17.615" fill="#FFCA00" stroke="#000" stroke-width=".42" stroke-linecap="round" stroke-linejoin="round"/><path d="m56.127 94.749.143-29.128-43.98 8.383 28.85 24.672 1.107 4.422.235 2.778-.789 5.136 14.677-3.617z" fill="#3D8738"/><path d="m57.462 65.621-1.083 40.834 52.624-13.074.546-3.164v-3.734l-.546-5.58m0-.001L69.37 63.128 57.462 65.62" fill="#9DC273"/><path d="M12.29 74.004v27.6l28.85 24.672 1.913-1.368-.235-24.689z" fill="#FFEDDC"/><path d="m55.976 107.495-.059 15.055-14.777-11.405 14.836-3.591" fill="#D48D24"/><path d="M129.395 109.978 96.961 32.255h-.008c1.04 3.818-1.116 9.063-6.386 14.115-8.35 7.997-21.306 12.461-28.934 9.96a11 11 0 0 1-1.192-.478c-2.249-1.057-3.558-2.744-3.986-4.817l-.025.017-.277 71.455s22.674 6.277 52.221 1.209c23.581-4.045 21.046-13.729 21.046-13.729z" fill="#FFEBD9" stroke="#000" stroke-width=".42" stroke-linecap="round" stroke-linejoin="round"/><path d="m12.29 74.004 28.85 24.671 67.863-17.773-39.634-17.774z" stroke="#000" stroke-width=".42" stroke-linecap="round" stroke-linejoin="round"/><path d="m12.29 86.482 28.85 24.664L108.885 93.8" stroke="#000" stroke-width=".42" stroke-linecap="round" stroke-linejoin="round"/><path d="m12.29 101.604 28.85 24.671 67.678-17.413" stroke="#000" stroke-width=".42" stroke-linecap="round" stroke-linejoin="round"/><path d="M41.14 98.676s1.099 2.123 1.099 6.235c0 5.396-1.1 6.235-1.1 6.235m.001 0s1.334 2.576 1.334 7.56c0 6.546-1.334 7.561-1.334 7.561m67.863-45.365s1.1 2.123 1.1 6.235c0 5.396-1.217 6.454-1.217 6.454m0 .057s1.334 2.577 1.334 7.561c0 6.546-1.334 7.561-1.334 7.561M12.29 74.004v27.6" stroke="#000" stroke-width=".42" stroke-linecap="round" stroke-linejoin="round"/><path d="M21.503 78.644c0-11.555 9.366-20.92 20.92-20.92 11.556 0 20.921 9.365 20.921 20.92 0 0-6.52 7.183-21.096 7.183s-20.736-7.183-20.736-7.183z" fill="#2151B4" stroke="#000" stroke-width=".42" stroke-miterlimit="10"/><path d="M45.797 54.652c1.645 1.225 2.56 3.063 2.56 5.27 0 0-1.318 2.3-5.992 2.3s-6.646-2.3-6.646-2.3c0-2.056.923-3.902 2.383-5.127" fill="#2151B4"/><path d="M45.797 54.652c1.645 1.225 2.56 3.063 2.56 5.27 0 0-1.318 2.3-5.992 2.3s-6.646-2.3-6.646-2.3c0-2.056.923-3.902 2.383-5.127" stroke="#000" stroke-width=".42" stroke-miterlimit="10"/><path d="M92.9 27.758 71.148 16.882c-5.32-1.083-11.177 2.123-14.542 6.772-2.014 2.786-3.13 6.092-2.686 9.306l2.493 18.068" stroke="#000" stroke-width=".42" stroke-linecap="round" stroke-linejoin="round"/><path d="M76.922 28.865s-3.885 1.452-7.267 3.432c-1.2.705-2.912 2.031-4.011 2.912-1.637 1.31-2.426 2.09-2.426 2.09 1.486 3.172 5.262 4.95 9.298 3.986 4.54-1.083 7.452-5.161 6.512-9.113-.319-1.335-1.116-2.417-2.106-3.307" fill="#FFEBD9"/><path d="M77.048 28.697a7.1 7.1 0 0 1 2.09 3.516c.939 3.944-1.973 8.023-6.513 9.114-4.036.965-8.005-.764-9.49-3.936" stroke="#000" stroke-width=".42" stroke-linecap="round" stroke-linejoin="round"/><path d="m41.14 111.146 1.342 4.372v6.386l-1.342 4.372 14.719-3.709.268-.076zm0-12.47 1.107 3.826v2.409l-.092 2.937-1.015 3.298 15.23-3.751.009-.151zM24.91 67.198s-1.023 9.953 3.383 12.714c9.03 5.656 13.955 5.916 13.955 5.916s-6.042 0-9.298-1.058c-2.308-.755-6.94-2.408-8.97-3.742-.714-.47-2.468-2.384-2.468-2.384l.68-6.1 2.727-5.346z" fill="#000"/><path d="m88.939 72.015 19.41 8.837-51.97 13.62.076-11.145 1.141-.495 1.637-.856 1.502-.965 1.661-1.175 1.175-1.133s-.042-1.77-.117-2.358c-.06-.478-.277-1.418-.378-1.896-.1-.504-.294-1.502-.436-1.998-.193-.637-.655-1.88-.94-2.475a27 27 0 0 0-1.058-1.939c-.42-.688-1.77-2.693-1.77-2.693l10.464-1.98 19.595 8.651z" fill="#9DC273"/><path d="m93.135 73.199.537-1.1-.588-1.208.638-1.955.067-1.754-.042-.562c0 1.51-4.599 3.608-10.011 3.608-5.413 0-9.625-2.014-9.625-3.533l-.042-.436-.076 3.004.487 1.04-.47.99.37 1.016-.353 1.427.058 7.586c0 1.51 4.574 3.97 9.987 3.97 5.412 0 9.675-2.434 9.675-3.945l.017-.025-.059-7.133-.562-.99z" fill="#34A1FF"/><path d="M91.65 52.304a1.435 1.435 0 0 0-1.822.922l-.503 1.536 2.752.873.495-1.502a1.435 1.435 0 0 0-.923-1.821z" fill="#FF70AC" stroke="#000" stroke-width=".42" stroke-linecap="round" stroke-linejoin="round"/><path d="m90.055 63.213-2.904-.63a24 24 0 0 0-3.172-.209c-5.412 0-9.91 1.729-9.91 3.869s4.498 3.877 9.91 3.877c5.413 0 9.802-1.738 9.802-3.877 0-1.234-1.46-2.333-3.726-3.038z" fill="#34A1FF" stroke="#000" stroke-width=".42" stroke-linecap="round" stroke-linejoin="round"/><path d="M93.84 81.255c0 1.51-4.356 4.028-9.777 4.028s-9.894-2.542-9.894-4.053l-.058-7.586.352-1.427-.37-1.015.47-.99-.486-1.04-.025-2.921" stroke="#000" stroke-width=".42" stroke-linecap="round" stroke-linejoin="round"/><path d="m84.206 70.127 3.13-.234 4.758-14.359-2.77-.78z" fill="#FFCA00" stroke="#000" stroke-width=".42" stroke-linecap="round" stroke-linejoin="round"/><path d="M93.815 68.86c-.848 1.687-4.448 3.827-9.86 3.819-5.413-.008-9.005-2.257-9.86-3.852" stroke="#000" stroke-width=".42" stroke-linecap="round" stroke-linejoin="round"/><path d="M74.396 71.88c.47.832 4.414 3.425 9.676 3.425 5.261 0 9.65-2.602 9.675-3.206" stroke="#000" stroke-width=".42" stroke-linecap="round" stroke-linejoin="round"/><path d="M74.144 74.138c0 1.51 4.43 3.785 9.818 3.785s9.802-2.274 9.802-3.793" stroke="#000" stroke-width=".42" stroke-linecap="round" stroke-linejoin="round"/><path d="m93.78 66.251.034 2.593-.638 1.964.596 1.2-.537 1.107.562.99.059 7.133" stroke="#000" stroke-width=".42" stroke-linecap="round" stroke-linejoin="round"/><path d="m56.379 94.899.042 12.126 52.263-13.393s.63-.772.923-2.551c.403-2.425.487-4.498.059-7.091-.235-1.418-.78-2.837-.78-2.837L56.371 94.9z" fill="#9DC273"/><path d="m56.421 107.453-.067 14.694 52.356-13.452s.469-.478.839-2.031c.587-2.484.57-4.8.377-7.603s-1.099-5.035-1.099-5.035z" fill="#FFCD45"/><path d="M110.388 100.018c11.714 2.618 19.082 6.352 19.082 11.127" stroke="#000" stroke-width=".42" stroke-linecap="round" stroke-linejoin="round"/><path d="m56.161 82.966 2.174-1.007 1.183-.722 1.493-.948 1.125-.83.948-.924v-1.754l-.52-2.903-.344-1.326-1.007-2.702-1.2-2.048a18.5 18.5 0 0 0-2.744-3.6l-.864-.88" fill="#56A0F8"/><path d="m56.38 61.35-.219 60.831M45.797 54.653c1.318-2.543 4.297-6.092 3.13-12.092-1.007-5.195-3.658-7.05-7.099-10.154-.705-.638-1.032-1.418-1.032-2.35a3.186 3.186 0 0 1 3.18-3.189c.663 0 1.167.218 1.78.546 2.584 1.35 6.335 3.39 7.913 4.204" stroke="#000" stroke-width=".42" stroke-linecap="round" stroke-linejoin="round"/><path d="M38.102 54.795c.11-.142 3.91-3.373 3.776-8.534-.193-7.645-8.3-7.192-7.804-16.934.134-2.551 1.603-5.178 2.803-6.596 2.249-2.644 7.611-3.315 11.177-1.62 3.592 1.704 5.933 3.374 7.175 4.163" stroke="#000" stroke-width=".42" stroke-linecap="round" stroke-linejoin="round"/><path d="M45.798 54.653c-.932.436-1.57.839-3.441.822-1.62-.017-2.669-.302-3.885-1.04" stroke="#000" stroke-width=".42" stroke-miterlimit="10" stroke-linecap="round"/></svg>
