<svg data-preply-ds-component="SvgTokyoUIIllustration" xmlns="http://www.w3.org/2000/svg" viewBox="0 0 800 800"><path d="M773.98 111.36c3.1.57 6.35 1.14 9.27 2.37 3.03 1.84 3.2 5.08 2.69 8.28-3.83 21.32-7.41 42.7-11.44 63.98-15.53 87.87-31.55 176.33-47.09 264.17-5.11 27.16-9.51 54.46-14.63 81.61-4.07 22.33-7.82 44.73-11.93 67.05-2.02 9.76-3.25 19.64-5.6 29.33-1.42 6.07-2.25 13.23-5.52 18.62-1.39 2.39-3.64 2.8-6.16 3.26-.17 9.66-.32 19.32-.38 28.97-.05 2.96.23 6.1-.31 9.01-.88 4.07-4.64 7.27-8.88 7.1-5.82-.46-11.64-.24-17.47-.22 5.93-2.22 12.36-.23 18.65-1.61 3.12-.19 5.5-2.86 6.29-5.7.86-6.01.69-12.53.83-18.58.08-12.19.1-24.38.44-36.57-19.38-4.83-39.26-7.88-58.75-12.33-25.38-4.9-50.62-10.34-76.01-15.23-18.94-4.16-38.08-7.52-57.01-11.69-40.41-7.98-80.44-16.37-120.93-24.45-6.62-1.87-13.25-3.01-20.13-2.04-6.48.8-12.35 3.18-18.7 4.55-3.61.74-7.3 2.34-10.93 2.31 7.32-3.19 15.36-4.68 22.96-7.16.56-4.56 1.62-9.02 2.44-13.57-8.76 1.58-17.54 3-26.3 4.54-1.61 5.62-1.38 11.7-3.61 17.07 1.43-.27 2.87-.55 4.3-.81-2.75 1.89-5.81 2.24-9.06 3.36-9.29 3.07-18.65 5.92-27.93 9.04-9.62 3.6-19.53 6.41-29.28 9.66-14.92 4.05-29.41 9.4-44.22 13.86-.18 7.14-.23 14.34-.77 21.47-18.66 4.06-37.19 8.61-55.82 12.75-6.01 1.41-12.03 2.67-18 4.25-5.79 1.16-11.8 3.05-17.72 3.11-.32-4.09-.66-8.19-.96-12.28-8.21 2.02-16.14 4.89-24.25 7.25-10.28 3.54-20.81 6.21-31.06 9.83-11.67 3.59-24.06 7.38-35.86 11.14-2.59.8-2.16 3.79-2.36 5.94.06 6.69-.51 13.44.43 19.98 2.6.31 5.19.3 7.79.26 106.12.02 212.87.04 318.96-.02l2.02-.06.02 1.66c-5.33-.12-10.67-.07-16-.1-104.2.22-208.99-.13-313.17.13-.8-1.65-1.18-2.98-1.1-4.84.12-6.35-.31-12.69-.15-19.03.01-1.54.55-2.91 1.07-4.33 9.23-3.34 18.6-6.22 28.01-9 10.82-3.71 21.87-6.67 32.71-10.31 11.14-3.79 22.6-6.65 33.63-10.73 2.94.92 5.89 2.16 8.93 2.65 27.21-8.91 54.73-17.71 81.87-26.72l.39-4.5c10.63-2.7 20.78-6.77 31.36-9.66 2.18-10.43 3.83-20.96 6.03-31.39.9-3.95 1.15-8.19 2.55-11.98l.86.06c-.07 4.13-1.27 7.88-1.95 11.92-1.79 10.24-3.74 20.45-5.57 30.68 1.61-.44 3.21-.88 4.78-1.45.58-6.87 2.53-13.57 3.57-20.4 3.54-18.93 6.85-37.89 10.32-56.83 2.76-13.21 4.69-26.58 7.31-39.82 2.98-17.78 6.51-35.44 9.74-53.18 2.77-19.42 6.6-38.71 10.25-57.98.55-3.29.76-7.23 2.38-10.18 1.37-2.42 4.53-3.87 6.95-5.03 8.38-3.77 16.48-8.14 24.72-12.16 5.53-2.32 10.52-5.63 16.05-7.91 32.51-16.47 65.96-32.93 98.71-49.32 19.89-10.07 40.18-19.89 59.98-30.03 1.4-.82 2.73-.81 4.3-.77-21.02 10.03-41.8 20.85-62.72 31.1-46.16 23.16-92.86 46.33-138.75 69.37-2.5 1.33-5.36 2.59-7.39 4.58-1.5 2.18-1.78 5.28-2.5 7.79-.94 3.41-1.42 6.85-1.77 10.36-11.42 61.81-22.7 124.66-34.01 186.73-1.54 11.17-4.23 22.14-5.34 33.36.83-.34 1.66-.68 2.48-1.02 6.93-38.31 14.09-76.51 20.82-114.86 3.64-18.44 6.67-36.99 10.13-55.47.79-3.83.94-7.73 1.73-11.56 2.93-15.64 5.63-31.3 8.31-46.99.53-3.01 1.22-5.79 3.78-7.75 20.56-9.92 41.55-20.68 62.07-30.87C486.59 263 615.75 198.51 744.91 133.99c8.42-4.26 17.05-8.26 25.25-12.91.1-1.16.19-2.33.26-3.49l-2.4.58c.71-1.08 2.96-2.97 3.69-.99.03 3.32-.89 6.69-1.38 9.97-2.45 13.62-4.64 27.3-7.39 40.86-4.5 23.31-8.41 46.72-13.11 69.99-7.35 40.73-15.28 81.31-22.65 122.04-3.17 15.2-5.7 30.54-8.61 45.79-3.7 20.43-7.74 40.78-11.42 61.21-3.61 20.35-7.8 40.58-11.38 60.94-4.56 25.03-9.47 49.98-14.02 75.01-1.69 8.71-3.16 17.46-4.99 26.15 1.9.57 3.83.97 5.77 1.39.1-3.25.81-6.38 1.47-9.55 3.08-17.8 6.55-35.51 9.73-53.3.26.74.51 1.48.77 2.22-1.56 6.6-2.45 13.33-3.78 19.98-2.12 13.37-5.37 26.68-6.94 40.12-.2 6.21-.03 12.45-.2 18.67 2.94-.24 4.35-.66 5.78-3.31 3.37-6.74 4.34-14.97 5.54-22.35 5.71-31.68 11.43-63.32 16.96-95.03 3.03-16.3 5.98-32.62 8.74-48.97 14.37-80.07 28.69-160.42 42.99-240.53 4.69-25.13 8.74-50.39 13.58-75.49 2.18-12.73 4.51-25.43 6.78-38.15.33-2.46 1.01-5.43.25-7.83-1.66-2.64-4.2-2.65-6.93-3.42-.52 5.93-2.1 11.66-2.94 17.55-2.54 10.25-3.85 20.69-5.93 31.04-2.57 15.66-5.8 31.19-8.53 46.83-10.88 60.33-21.89 120.65-32.83 180.98-1.08 5.91-2.42 11.75-3.17 17.72-.33-1.54-.7-2.95-.37-4.53.8-5.07 1.88-10.11 2.92-15.14 5.39-30.93 11.38-63.14 17-94.01 3.73-21.73 8.01-43.29 11.89-65.02 5.79-34.75 13.04-69.4 18.57-104.2.42-3.49 1.85-7.4 1.37-10.85-4.22-2.59-7.9 1-11.64 2.67-75 37.34-150.06 74.56-225.04 111.9-23.68 11.7-47.02 23.44-70.76 35.08-2.78 1.19-5.45 3.67-8.57 2.86 15.21-6.97 29.96-14.96 45.05-22.19 59.05-29.46 119.71-59.45 179.02-89.01 28.42-14.17 56.98-28.02 85.01-42.97 1.95-1.08 3.43-1.35 5.66-.94" fill="#302f3b"/><path d="M775.25 113.96c.48 3.45-.95 7.36-1.37 10.85-5.53 34.8-12.78 69.45-18.57 104.2-3.88 21.73-8.16 43.29-11.89 65.02-5.62 30.87-11.61 63.08-17 94.01-1.04 5.03-2.12 10.07-2.92 15.14-.33 1.58.04 2.99.37 4.53a64 64 0 0 1-.47 3.38c-.03-1.13-.08-2.25-.15-3.38-1.47.86-1.34 2.64-1.72 4.11-6 34.44-12.58 68.73-18.65 103.19-.34 3.05-2.21 7.15-.09 9.76l-.12.87c-.5-.27-1-.54-1.51-.8-.81 4.03-1.99 8.07-2.36 12.16-.03.99.35 1.92 1.15 2.78-.19 1.01-.38 2.03-.56 3.04l-1.27-.81c-1.64 6.4-2.42 13.06-3.73 19.55-.32 2.36-1.26 4.18.49 6.24-.12.71-.24 1.41-.38 2.1-.26-.74-.51-1.48-.77-2.22-3.18 17.79-6.65 35.5-9.73 53.3-.66 3.17-1.37 6.3-1.47 9.55-1.94-.42-3.87-.82-5.77-1.39 1.83-8.69 3.3-17.44 4.99-26.15 4.55-25.03 9.46-49.98 14.02-75.01 3.58-20.36 7.77-40.59 11.38-60.94 3.68-20.43 7.72-40.78 11.42-61.21 2.91-15.25 5.44-30.59 8.61-45.79 7.37-40.73 15.3-81.31 22.65-122.04 4.7-23.27 8.61-46.68 13.11-69.99 2.75-13.56 4.94-27.24 7.39-40.86.49-3.28 1.41-6.65 1.38-9.97-.73-1.98-2.98-.09-3.69.99-.42.45-.85.9-1.29 1.34-1.17-.42-2.21-.39-3.13.09-87.23 43.5-174.45 87.05-261.66 130.6l.84 1.49c-.74.33-1.5.63-2.25.92-1.57-.04-2.9-.05-4.3.77-19.8 10.14-40.09 19.96-59.98 30.03-32.75 16.39-66.2 32.85-98.71 49.32-5.53 2.28-10.52 5.59-16.05 7.91-8.24 4.02-16.34 8.39-24.72 12.16-2.42 1.16-5.58 2.61-6.95 5.03-1.62 2.95-1.83 6.89-2.38 10.18-3.65 19.27-7.48 38.56-10.25 57.98-3.23 17.74-6.76 35.4-9.74 53.18-2.62 13.24-4.55 26.61-7.31 39.82-3.47 18.94-6.78 37.9-10.32 56.83-1.04 6.83-2.99 13.53-3.57 20.4-1.57.57-3.17 1.01-4.78 1.45 1.83-10.23 3.78-20.44 5.57-30.68.68-4.04 1.88-7.79 1.95-11.92l-.86-.06.1-.26c1.26-1.14 2.01-1.78 2.19-3.59 5.99-33.43 12.49-66.76 18.62-100.16 5.12-27.88 10.79-55.63 15.44-83.6.96-3.72 1.27-7.73 2.59-11.32 2.2-4.04 7.99-6.1 11.92-8.09 30.96-15.58 62.41-30.93 93.47-46.48 22-10.87 43.96-21.9 65.89-32.72l-1.2-1.32c.69-.35 1.39-.68 2.09-1 3.12.81 5.79-1.67 8.57-2.86 23.74-11.64 47.08-23.38 70.76-35.08 74.98-37.34 150.04-74.56 225.04-111.9 3.74-1.67 7.42-5.26 11.64-2.67" fill="#878699"/><path d="M777.27 113.59c2.73.77 5.27.78 6.93 3.42.76 2.4.08 5.37-.25 7.83-2.27 12.72-4.6 25.42-6.78 38.15-4.84 25.1-8.89 50.36-13.58 75.49-14.3 80.11-28.62 160.46-42.99 240.53-2.76 16.35-5.71 32.67-8.74 48.97-5.53 31.71-11.25 63.35-16.96 95.03-1.2 7.38-2.17 15.61-5.54 22.35-1.43 2.65-2.84 3.07-5.78 3.31.17-6.22 0-12.46.2-18.67 1.57-13.44 4.82-26.75 6.94-40.12 1.33-6.65 2.22-13.38 3.78-19.98.14-.69.26-1.39.38-2.1 1.44-8.33 3.11-16.63 4.51-24.98.18-1.01.37-2.03.56-3.04 1.01-4.69 2-9.39 2.72-14.14l.12-.87c6.76-37.65 13.62-75.13 20.61-113.68.19-1.12.34-2.25.47-3.38.75-5.97 2.09-11.81 3.17-17.72 10.94-60.33 21.95-120.65 32.83-180.98 2.73-15.64 5.96-31.17 8.53-46.83 2.08-10.35 3.39-20.79 5.93-31.04.84-5.89 2.42-11.62 2.94-17.55m-9.25 4.58 2.4-.58c-.07 1.16-.16 2.33-.26 3.49-8.2 4.65-16.83 8.65-25.25 12.91C615.75 198.51 486.59 263 357.37 327.38c-20.52 10.19-41.51 20.95-62.07 30.87-2.56 1.96-3.25 4.74-3.78 7.75-2.68 15.69-5.38 31.35-8.31 46.99-.79 3.83-.94 7.73-1.73 11.56-3.46 18.48-6.49 37.03-10.13 55.47-6.73 38.35-13.89 76.55-20.82 114.86-.82.34-1.65.68-2.48 1.02 1.11-11.22 3.8-22.19 5.34-33.36 11.31-62.07 22.59-124.92 34.01-186.73.35-3.51.83-6.95 1.77-10.36.72-2.51 1-5.61 2.5-7.79 2.03-1.99 4.89-3.25 7.39-4.58 45.89-23.04 92.59-46.21 138.75-69.37 20.92-10.25 41.7-21.07 62.72-31.1.75-.29 1.51-.59 2.25-.92 13.14-6.93 26.58-13.33 39.84-20.03 68.33-34.13 137.12-68.5 205.47-102.55 6.12-3.37 12.64-6.04 18.64-9.6.44-.44.87-.89 1.29-1.34" fill="#d3d3d3"/><path d="M766.73 119.51c-6 3.56-12.52 6.23-18.64 9.6-68.35 34.05-137.14 68.42-205.47 102.55-13.26 6.7-26.7 13.1-39.84 20.03l-.84-1.49c87.21-43.55 174.43-87.1 261.66-130.6.92-.48 1.96-.51 3.13-.09" fill="#5d5c68"/><path d="M760.94 169.72c-4.14 24.48-9.04 48.88-13.53 73.3-6.68 36.69-13.75 73.29-20.39 109.99-3.74 18.67-6.97 37.46-10.53 56.16-13.66 73.01-27.45 146.73-40.95 219.74-4.63-.53-9.17-1.75-13.78-2.54-49.56-10.01-99.27-20.18-148.83-30.12-2.53-.67-6.06-.67-8.07-2.42 36.69-2.87 73.45-5.29 110.13-8.29 4.92-.47 10.16-.28 14.95-1.52 2.26-.72 2.96-2.63 3.39-4.77 2.86-15.8 6.44-31.47 9.44-47.26 5.79-29.52 12.01-58.85 17.76-88.39 2.66-13.24 5.69-26.48 7.94-39.8.54-2.47-1.31-3.19-3.45-2.85-8.02 1.4-15.77 4.43-23.64 6.51-15.49 4.19-30.79 8.94-46.26 13.19 2.85-15.67 6.48-31.17 9.46-46.82 3.13-15.26 6.05-30.59 9.33-45.82 4.16-20.28 8.02-40.63 12.48-60.85.54-3.26 1.5-6.72 1.29-10.03-.18-1.73-2.13-2.5-3.66-2.46-3.08.07-6.29 2.05-9.05 3.31-8.62 3.8-17.43 7.15-26.01 11.06-11.62 4.74-22.91 10.32-34.75 14.46-6.48 2.26-12.63 5.27-19.06 7.66-24.08 10.23-48.08 20.01-72.13 30.08-43.65 18.03-87.66 36.49-131.31 54.44-1.97.9-4.25 1.7-5.91 3.11-2.19 2.24-2.29 5.31-2.71 8.23-7.94 44.05-16.02 88.52-23.77 132.49-4.1 21.26-7.6 42.65-11.65 63.92-11.85 3.61-23.66 7.33-35.5 10.97 1.86-11.16 4.21-22.21 5.71-33.43 6.86-36.98 13.34-74 20.21-110.99 3.84-22.29 8.13-44.48 12.27-66.71 15.94-7.47 32.15-14.26 48.02-21.88 71.74-32.27 143.12-64.76 214.78-97.21 54.41-24.57 108.57-49.49 163.06-73.95 14.82-7 30.01-13.28 44.72-20.51" fill="#56a0f5"/><path d="M622.41 256.43c1.07-.34 2.8-.41 3.36.8.92 1.14.17 3.23.02 4.57-1.69 7.45-2.87 14.98-4.5 22.43-8.54 3.75-17.44 6.66-26.08 10.17-91.06 34.83-182.13 69.66-273.2 104.5 1.12-5.72 1.72-11.72 3.68-17.21.73-2.11 3.16-3.12 5.03-3.99 5.38-2.29 10.77-4.53 16.09-6.95 66.67-27.6 133.35-55.27 200-82.92 25.38-10.17 50.17-21.36 75.6-31.4" fill="#d3d3d3"/><path d="M520.86 260.06c-.5 2.3-.05 4.24-3.13 4.29.43-2.65.54-3.41 3.13-4.29" fill="#636272"/><path d="M509.46 262.5c1.33-.86 3.31-.58 3.05 1.48-.02 2.89-2.16 6.74-5.37 6.98-1.54-2.94.08-6.39 2.32-8.46" fill="#89889b"/><path d="m457.15 267.47 1.2 1.32c-21.93 10.82-43.89 21.85-65.89 32.72-31.06 15.55-62.51 30.9-93.47 46.48-3.93 1.99-9.72 4.05-11.92 8.09-1.32 3.59-1.63 7.6-2.59 11.32-4.65 27.97-10.32 55.72-15.44 83.6-6.13 33.4-12.63 66.73-18.62 100.16-.18 1.81-.93 2.45-2.19 3.59l.02-.36c.03-2.35.43-4.62.91-6.91 11.66-62.83 23.39-125.64 35.01-188.48 1.26-7.02 7.32-9.05 12.9-11.93 53.21-26.45 106.96-53.09 160.08-79.6" fill="#5b5a65"/><path d="M610.24 268.12c3.31-1.38 5.03 2.05 4.67 4.8-.59 3.08-2 5.8-5.04 7.04-2.39.39-3.35-1.9-3.42-3.93.23-2.88 1.18-6.28 3.79-7.91" fill="#6d6c74"/><path d="M612.77 270.26c.95 3.66-.41 6.13-2.89 8.67-.61-.37-1.21-.74-1.82-1.1.09-1.85-.41-4.47.67-6.05 1.34-1.35 2.15-3.46 4.04-1.52" fill="#d4d4d4"/><path d="M603.67 273.28c1.56 4.01 0 11.24-5.65 9.84-1.3-3.1-1.17-4.84.25-7.86.93-2.17 3.35-4.2 5.4-1.98" fill="#7a797f"/><path d="M600.45 274.45c1.7-1.57 2.9 1.04 2.55 2.54-.2 1.77-1.48 5.54-3.82 5-1.06-2.36-.82-5.82 1.27-7.54" fill="#d2d2d2"/><path d="M592.37 276.38c2.68-.63 2.95 2.74 2.76 4.66.01 2.18-2.29 6.99-5.02 4.97-2.35-2.13-.58-8.76 2.26-9.63" fill="#818187"/><path d="M593.65 278.32c1.02 2.88-.49 4.73-1.69 7.18-1.33-1.09-2.02-2.23-1.64-3.98.44-1.51 1.24-4.46 3.33-3.2" fill="#ccc"/><path d="M620.51 286.13c-2.27 11.47-4.54 22.95-6.86 34.41-16.87 5.6-33.63 11.52-50.52 17.08 1.67-9.16 3.46-18.31 5.32-27.44.3-1.47.27-2.95.23-4.45 10.65-4.09 21.26-8.12 31.95-12.13 6.53-2.75 13.21-5.1 19.88-7.47" fill="#f9eddc"/><path d="M567.91 306.05c-2.04 10.72-3.87 21.55-6.5 32.14-13.94 3.99-27.35 9.89-41.11 14.49 2.06-10.09 3.65-20.39 6.11-30.38 5.59-2.9 12.52-5.06 18.46-7.48 6.65-2.21 12.96-5.2 19.57-7.48 1.16-.42 2.32-.86 3.47-1.29" fill="#f9ecdc"/><path d="M613.45 321.68c-2.2 9.56-3.98 19.22-5.92 28.84-12.58 3.82-25.06 8.6-37.82 11.61.74-8.74.84-17.53 2-26.22 13.98-4.55 27.77-9.64 41.74-14.23m-88.57.77c-1.96 10.21-3.87 20.44-5.81 30.65-12.94 4.94-26.07 9.52-39.1 14.25 1.91-10.01 4.06-19.98 6.12-29.95 12.91-5.05 25.88-9.9 38.79-14.95" fill="#f9eddc"/><path d="M569.96 336.87c-.47 11.82-1.41 23.59-1.86 35.41-3.37-2.55-6.53-5.36-9.86-7.97-5 6.6-10.45 12.8-15.64 19.23-7.89 9.46-15.61 19.05-23.5 28.51-7.22 9.14-15 17.71-22.29 26.77-11.25 13.97-22.5 27.85-33.82 41.77-10.11-8.02-19.77-16.62-29.92-24.61-6.16 7.88-11.72 16.26-17.98 24.08-6.68 9.02-13.03 18.27-19.81 27.22-6.32 9.89-13.59 19.08-20.12 28.82-3.34 3.85-5.86 8.23-9.07 12.14-2.69-3-5.14-6.22-7.82-9.23 1.25-2.96 3.59-5.64 5.41-8.31 5.62-8.01 11.49-15.8 16.94-23.93 7.8-10.59 15.65-21.12 23.41-31.74 9.14-12.91 19.09-25.24 28.15-38.18 6.67 4.9 12.7 10.67 19.18 15.81 2.42 1.9 4.68 3.97 6.96 6.02 1.17.95 2.1 1.97 3.75 1.79 1.22-.47 2-1.56 2.83-2.51 6.72-8.6 13.74-16.95 20.54-25.49 3.47-4.53 7.65-8.4 11.03-13 16.86-20.53 34.57-42.27 51.45-62.73-2.51-3.86-6.02-5.84-9.4-8.94 10.24-4.22 20.86-7.67 31.44-10.93" fill="#9dc273"/><path d="M484.65 338.01c-2 9.95-4.18 19.87-6.16 29.82-11.77 4.63-23.82 8.47-35.58 13.12 1.61-9.81 3.79-19.58 5.78-29.32 12.04-4.42 23.88-9.34 35.96-13.62" fill="#f9ecdc"/><path d="M536.77 348.18c3.22 2.7 6.48 5.36 9.65 8.11-4.8 6.61-10.5 12.47-15.3 19.08-5.28 1.82-10.61 3.46-15.88 5.33 1.7-8.79 2.82-17.85 5.01-26.51 5.28-2.44 11.02-4.09 16.52-6.01m-89.31 4.01c-2.02 9.71-4.01 19.43-6.01 29.14-10.65 3.93-21.35 7.74-32.03 11.57 1.99-9.61 4.01-19.25 6.17-28.82 10.72-3.67 21.2-8.09 31.87-11.89m159.51-.2c-1.59 10.52-4.03 20.94-6.09 31.39-4.59 1.21-9.1 2.72-13.67 4.03-12.14 3.81-24.52 6.91-36.57 11 1.88-9.43 3.67-18.9 5.56-28.32.28-1.67 1.41-2.56 2.41-3.81 3.13 2.42 6.01 5.22 9.3 7.41.44-.7.88-1.41 1.32-2.12.15-2.64.32-5.29.43-7.94 12.51-3.41 24.98-7.62 37.31-11.64" fill="#f9eddc"/><path d="M518.68 354.61c-1.45 8.83-3.18 17.62-4.63 26.45-13.29 4.19-26.44 8.73-39.74 12.86 1.79-8.38 3.55-16.77 5.23-25.18 12.1-4.28 24.1-8.86 36.24-13.06.97-.35 1.93-.71 2.9-1.07M414.4 364.84c-2.65 9.23-4.1 18.82-6.37 28.15l-.39.43c-10.22 4.13-20.77 7.63-31.16 11.34 1.8-9.24 3.59-18.48 5.43-27.71 10.94-3.79 21.55-8.44 32.49-12.21m63.7 4.44c-1.57 8.44-3.39 16.83-5.35 25.19-11.67 3.97-23.46 7.59-35.14 11.53 1.61-7.98 3.14-15.99 4.96-23.93 11.84-4.24 23.71-8.5 35.53-12.79" fill="#f9ecdc"/><path d="M554.43 371.69c-1.54 8.93-3.33 17.81-5.05 26.71-7.59 2.76-15.55 4.44-23.18 7.09 8.59-10.49 17.27-20.95 25.91-31.39.75-.83 1.52-1.63 2.32-2.41m-173.97 6.3c-1.56 8.08-3.29 16.12-4.78 24.22-.4 1.23-.22 3.35-1.83 3.64-9.1 3.23-18.21 6.44-27.23 9.88 1.8-8.92 3.67-17.82 5.27-26.78 5.02-2.89 10.48-4.06 15.77-6.31 4.27-1.51 8.42-3.51 12.8-4.65" fill="#f9eddc"/><path d="M529.33 377.36c-5.71 7.07-11.5 14.09-17.27 21.12.85-5.46 1.69-10.94 2.89-16.34 4.82-1.51 9.57-3.24 14.38-4.78m-15.67 5.12c-.71 4.89-1.99 9.67-2.74 14.55-.34 1.62-.32 3.13-1.4 4.44-3.43 4.33-6.79 8.75-10.49 12.85-1.43.06-2.85.16-4.24.56-8.86 2.48-17.72 5.02-26.53 7.69 2.02-9.06 3.61-18.23 5.82-27.25 12.3-3.74 24.44-7.94 36.68-11.89.96-.32 1.93-.64 2.9-.95m-72.41.16c-1.78 7.88-3.2 15.83-5.05 23.7-10.54 3.59-21.19 6.91-31.77 10.42 1.75-7.45 2.84-15.26 4.9-22.59 9.16-3.24 18.02-6.56 27.13-9.88 1.59-.55 3.19-1.1 4.79-1.65m159.43 2.08c-2.33 10.29-4.29 20.67-6.35 31.02-9.77 2.95-19.73 5.2-29.51 8.14-6.78 1.45-13.38 4.06-20.24 5.02 2.11-9.79 3.64-19.71 5.96-29.44 15.7-4.8 31.48-9.4 47.25-13.97.96-.26 1.93-.51 2.89-.77" fill="#f9ecdc"/><path d="M350.58 389.25c-1.01 7.05-2.89 13.91-4.1 20.92-8.95 46.49-17.86 93.23-26.81 139.59-1.59 8.48-3.95 16.8-5.35 25.31-8.31 2.46-16.53 5.25-24.83 7.76 2.6-15.01 5.26-30.01 7.91-45.02 5.26-27.83 9.69-55.83 15.03-83.65 2.8-16.06 5.59-32.12 8.55-48.15.4-2.07.58-4.16.72-6.27 4.2-.65 7.76-2.6 11.91-4.13 4.63-1.73 9.23-3.51 13.86-5.24 1.04-.38 2.07-.75 3.11-1.12" fill="#f97bac"/><path d="M404.09 395.99c1.21-.37 2.42-.75 3.63-1.12-1.51 7.42-3.21 14.82-4.52 22.28-10.46 3.29-20.81 6.86-31.26 10.19 1.2-7.05 2.77-14.07 4.28-21.06 9.18-3.72 18.66-6.65 27.87-10.29" fill="#f9eddd"/><path d="M472.53 395.81c-1.84 9.09-3.75 18.15-5.61 27.23-11.65 3.39-23.32 6.66-34.94 10.15 1.66-8.59 3.29-17.25 5.39-25.74 10.75-3.79 21.65-7.07 32.46-10.66.9-.32 1.8-.65 2.7-.98m72.46 5.21c1.32-.37 2.64-.75 3.97-1.12-1.82 9.85-3.79 19.68-5.61 29.53-13.45 4.15-27.22 7.26-40.73 11.22.71-2.97.47-2.21-.41-4.64-.22 1.4-.45 2.8-.68 4.19q-1.395.885-1.11 2.07c.44 1.98.01 3.79-.48 5.71-1.85 7.53-2.99 15.24-4.87 22.76-9.3 2.06-18.48 4.57-27.77 6.67 8.47-10.85 17.35-21.43 25.97-32.17 1.25-1.7 4.23-1.8 6.06-2.49-1.25-.79-1.9-.85-3.46-.93 2.16-2.42 4.18-5 6.23-7.51.6.32 1.2.64 1.8.95.17-1.23.42-2.43.75-3.62 2.81-3.79 6.01-7.33 9.02-10.98 3.99-4.61 7.5-9.53 11.64-14 6.6-1.72 13.12-3.78 19.68-5.64" fill="#f9eddc"/><path d="M667.52 401.7c-.24 5.36-1.9 10.64-2.77 15.93-15.19 3.95-30.33 8.05-45.55 11.85-9.11 2.51-18.2 4.95-27.42 7.09 1.15-4.79 1.87-9.66 3.13-14.43 19.99-5.79 39.92-11.69 59.89-17.5 4.21-1.21 8.33-2.53 12.72-2.94" fill="#d3d3d3"/><path d="M657.54 405.68c1.26-.41 3.01-.11 3.65 1.17 1.91 2.84.4 7.24-1.86 9.46-1.58 1.43-4.13 1.55-5.11-.6-1.27-3.2.06-8.42 3.32-10.03" fill="#717078"/><path d="M657.47 407.49c.96-1.14 2.75.17 2.55 1.5.44 2.35-.73 7.45-3.88 7-2.01-2.52-1.19-6.6 1.33-8.5" fill="#d3d3d3"/><path d="M374.75 406.81c-1.42 6.96-2.92 13.91-4.16 20.91-9.29 3.16-18.61 6.24-27.99 9.1 1.35-6.62 2.44-13.3 3.91-19.9 9.43-3.32 18.76-6.92 28.24-10.11" fill="#f9ecdc"/><path d="M723.25 407.71c.07 1.13.12 2.25.15 3.38-6.99 38.55-13.85 76.03-20.61 113.68-2.12-2.61-.25-6.71.09-9.76 6.07-34.46 12.65-68.75 18.65-103.19.38-1.47.25-3.25 1.72-4.11" fill="#5d5d68"/><path d="M435.85 407.84c-1.74 8.59-3.43 17.19-5.28 25.76-10.51 2.99-20.95 6.25-31.47 9.21 1.62-8.23 3.33-16.45 5.07-24.65 10.6-3.31 21.08-6.98 31.68-10.32" fill="#f9eddc"/><path d="M647.41 409.37c1.32-1.03 3.45.12 3.78 1.59 1.23 3.4-.15 7.26-3.34 9.01-2.77.77-3.65-2.71-3.4-4.78.34-1.96 1.04-4.86 2.96-5.82" fill="#7a7980"/><path d="M649.71 411.25c.85 3.42-.13 5.65-2.63 7.94-1.35-1.84-1.26-3.91-.98-6.07.89-1.52 1.66-2.93 3.61-1.87" fill="#d3d3d3"/><path d="M639.98 411.64c4.32 1.67 2.62 11.97-2.75 10.33-2.06-3.64-.86-8.23 2.75-10.33" fill="#7b7a81"/><path d="M640.94 413.91c.05 2.93.5 6.02-2.78 7.34-1.14-2.65-1.16-7.46 2.78-7.34" fill="#cdcdce"/><path d="M498.87 414.88c-4.74 5-9.15 10.19-13.43 15.59-7.01 8.96-14.38 17.6-21.4 26.56-.88 1.17-1.57 1.73-2.99 2.16-.05-3.56 1.13-6.74 1.79-10.18 1.68-8.36 3.37-16.72 5.12-25.07 8.46-2.69 17.04-4.94 25.53-7.54 1.8-.51 3.59-1.01 5.38-1.52m95.03 2.41c-1.98 10.45-4 20.95-6.28 31.33-16.32 4.02-32.71 7.74-49.02 11.82 1.94-9.98 3.76-19.98 5.8-29.94 15.08-3.89 30.04-8.18 45.11-12.09 1.46-.38 2.93-.75 4.39-1.12m-191.1 1.28c-1.35 6.9-2.94 13.74-4.32 20.63-.49 1.98-.13 4.16-2.66 4.6-9.65 2.65-19.17 5.7-28.8 8.39 1.53-7.81 3.12-15.61 4.58-23.43 9.39-3 18.74-6.05 28.1-9.14 1.03-.35 2.07-.69 3.1-1.05" fill="#f9eddc"/><path d="M664.44 419.24c-.7 3.94-1.72 7.82-2.47 11.75-7.53 38.39-15.47 76.61-23.04 115-2.44 10.66-4.19 21.45-6.71 32.08-.46 1.48-.52 3.28-1.96 4.17-3.25 1.64-7.69 1.26-11.27 1.63-39.5 3.09-78.96 6.05-118.48 8.96-4.77.41-8.8-1.03-13.48-1.86-11.25-2.21-22.48-4.46-33.69-6.89 1.12-6.82 2.28-13.63 3.44-20.44 4.24-.5 8.46-1.11 12.72-1.5-.75 4.58-1.82 9.15-2.3 13.77.49.82 1.03 1.62 1.63 2.38 8.71-.94 17.42-1.72 26.15-2.42 32.98-2.6 65.05-5.22 98.01-8.06 7.03-.46 14.21-.72 21.17-1.8 2.64-.47 3.51-2.42 4-4.81 2.04-9.81 4.16-19.6 6.12-29.43.17-1.43.78-3.37-.56-4.43-2.18-.35-4.53.07-6.7.3-14.95 2.08-29.93 3.96-44.89 5.99.27-1.44.54-2.88.82-4.32 10.07-1.41 20.17-2.63 30.23-4.12 6.86-1.05 14.06-1.33 20.75-3.2 3.04-.87 3.02-3.64 3.78-6.21 2.28-10.58 4.53-21.21 6.55-31.83.38-2.31-1.24-2.96-3.23-2.56-16.62 3.02-33.26 6-49.94 8.66.18-1.2.36-2.4.53-3.6 1.11-.41 2.21-.83 3.38-1.07 11.61-1.97 23.17-4.2 34.81-6.08 5.21-1.06 10.39-1.47 15.46-3.09 1.29-2.61 1.82-5.4 2.46-8.21 1.93-9.07 3.8-18.15 5.74-27.2.29-1.54.39-3.08.37-4.64-8.69.93-17.28 4.15-25.83 5.99-9.54 2.18-18.99 4.85-28.59 6.75.68-3.58 1.4-7.15 2.15-10.72 16.81-4.42 33.64-8.88 50.48-13.19 7.5-1.82 14.83-4.18 22.39-5.75m-197.8 5.01c-2.11 11.05-4.55 22.02-6.98 33-9.42-7.49-18.4-15.56-27.92-22.92 10.66-2.64 21.05-6.33 31.69-9.1 1.07-.32 2.14-.65 3.21-.98m-96.32 4.9c-1.68 7.8-3.06 15.65-4.71 23.46-9.22 2.46-18.28 5.45-27.47 8.02 1.31-7.48 2.75-14.93 4.24-22.38 9.33-2.99 18.65-5.99 27.94-9.1" fill="#f9ecdc"/><path d="M542.96 430.92c-1.63 8.98-3.48 17.92-5.13 26.9-.4 1.28-.14 3.01-1.89 3.15-13.23 3.06-26.35 6.49-39.61 9.44 1.92-9.46 4.24-18.84 6.01-28.33 13.43-4.09 27.13-7.27 40.62-11.16" fill="#f9eddc"/><path d="m430.05 435.07.5 1.03c-.97 2.3-2.73 4.31-4.16 6.33-4.76 6.26-9.32 12.69-13.94 19.05-1.28 1.6-2.13 3.23-4.23 3.86-4.84 1.65-9.91 2.57-14.8 4.08 1.63-8.38 3.51-16.71 5.14-25.09 10.41-3.24 20.94-6.54 31.49-9.26" fill="#f9eddd"/><path d="M642.95 437.29c-1.7 10.66-4.39 21.18-6.56 31.76-.46 2.04-.8 4.54-2.26 6.14-1.24.62-2.76.81-4.12 1.07-10.35 1.64-20.66 3.51-31 5.19-5.7.88-11.04 2.36-16.8 2.61 2.44-11.05 3.86-22.3 6.52-33.28 13.76-4 27.59-7.08 41.49-10.52 4.22-1.12 8.38-2.38 12.73-2.97" fill="#f9cd45"/><path d="M397.3 444.44c-1.79 8.43-3.4 16.9-5.25 25.32-10.05 2.56-19.94 5.65-30.02 8.11 1.7-8.17 2.94-16.48 4.96-24.57 10.17-2.71 20.23-5.85 30.31-8.86" fill="#f9ecdc"/><path d="M587.16 450.21c-1.82 10.11-4.02 20.14-5.96 30.23-16.15 3.55-32.36 6.86-48.58 10.07 2-9.62 3.53-19.35 5.86-28.89 16.27-3.6 32.39-7.89 48.68-11.41m-221.73 3.69c-1.74 8.13-3.09 16.33-5.03 24.42-9.1 2.45-18.18 4.91-27.27 7.4 1.47-7.95 3.07-15.87 4.7-23.78 9.24-2.57 18.38-5.41 27.6-8.04" fill="#f9eddc"/><path d="M433.12 458.22c5.56 3.96 10.38 8.73 15.74 12.94 2.53 2.17 5.41 4.15 7.53 6.72-.05 1.26-.54 1.94-1.49 2.05-11.43 2.62-22.82 5.44-34.31 7.81 1.08-4.62 1.96-9.28 2.94-13.92.68-4.99 5.19-9.2 7.88-13.35zm103.7 3.87c-1.81 9.57-3.67 19.14-5.55 28.7-13.52 3.09-27.18 5.6-40.74 8.48 1.67-9.16 3.88-18.23 5.41-27.4 13.61-3.27 27.27-6.56 40.88-9.78m-128.29 4.55c-6.66 9.37-13.7 18.42-20.09 27.97 1.01-7.97 3.33-15.73 4.49-23.7 5.12-1.65 10.41-2.82 15.6-4.27m-16.77 4.46c-1.63 7.89-3.14 15.81-4.97 23.66-9.89 2.32-19.76 4.67-29.62 7.11 1.42-7.51 2.94-15.01 4.39-22.51 10-2.98 20.13-5.54 30.2-8.26" fill="#f9ecdc"/><path d="M494.96 472.07c-1.96 9.11-3.69 18.25-5.69 27.35-12.49 2.91-25.14 5.29-37.72 7.83 1.82-8.82 3.49-17.67 5.15-26.52 2.41-.55 3.4.13 5.45 1.08 1.85.41 2.96-2.15 4.11-3.22 9.67-1.44 19.16-4.37 28.7-6.52" fill="#f9eddc"/><path d="M422.5 472.94c-.98 4.99-2.03 9.96-2.93 14.97-3.45.99-6.96 1.72-10.47 2.43 3.9-4.88 7.41-10.04 11.36-14.88z" fill="#f9eddd"/><path d="M360.21 479.61c-1.38 7.53-3.04 15.01-4.36 22.55-9.04 2.22-18.12 4.25-27.14 6.5 1.45-7.25 2.66-14.55 4.25-21.77 9.18-2.09 18.08-5.13 27.25-7.28" fill="#f9ecdc"/><path d="M455.67 481.17c-1.98 8.74-3.33 17.59-5.24 26.34-11.72 2.65-23.53 4.84-35.28 7.33 1.74-8.55 3.51-17.1 5.2-25.66 11.79-2.58 23.54-5.34 35.32-8.01" fill="#f9eddc"/><path d="M580.85 482.01c-1.91 10.12-4.21 20.17-5.91 30.33-4.47-.01-8.56 1.12-12.94 1.78-11.69 1.94-23.34 4.14-35.03 6.08 1.69-9.41 3.65-18.77 5.4-28.18 16.1-3.58 32.33-6.61 48.48-10.01" fill="#f9ecdc"/><path d="M632.77 482.4c-.23 4.18-1.26 8-2.09 12.1-1.64 7.48-3.09 15-4.7 22.49-.41 2.2-1.49 4.14-3.94 4.38-16.21 1.95-32.39 4.29-48.59 6.26.61-3.47.73-7.08 1.67-10.46 2.52-8.3 3.69-16.99 5.6-25.46 17.32-3.25 34.8-5.76 52.05-9.31" fill="#f97aac"/><path d="M419 489.46c-1.34 8.6-3.54 17.05-4.98 25.62-8.88 1.76-17.72 3.71-26.58 5.54 6.69-9.76 13.8-19.16 20.67-28.8 2.48-.39 4.93-.94 7.36-1.52 1.18-.28 2.36-.56 3.53-.84" fill="#f9ecdc"/><path d="M530.93 492.26c-1.68 9.41-3.51 18.81-5.38 28.19-13.66 2.32-27.34 4.51-40.94 7.15 1.32-8.04 3.58-15.86 4.96-23.89.47-1.46.24-3.09 2.14-3.34 13.01-2.9 26.18-5.33 39.22-8.11" fill="#f9eddc"/><path d="M387.49 496.12c-5.31 6.52-9.64 13.8-14.83 20.43-1.6 1.99-2.84 4.61-4.81 6.23-5.09 1.45-10.37 2.26-15.5 3.57 1.49-7.69 2.82-15.42 4.59-23.05 10.23-2.22 20.29-5.08 30.55-7.18" fill="#f9eddd"/><path d="M489 501.04c-2.1 8.86-3.63 17.83-5.72 26.69-12.29 2.16-24.6 4.24-36.92 6.26 1.6-8.46 3.14-17.01 5.16-25.38 12.46-2.68 24.97-5.13 37.48-7.57" fill="#f9ecdc"/><path d="m352.34 504.42 3.15-.78c-1.35 7.67-3.07 15.26-4.43 22.93-8.92 2.1-17.91 3.86-26.85 5.83 1.46-7.43 2.6-14.94 4.33-22.31 7.93-1.89 15.85-3.82 23.8-5.67" fill="#f9eddc"/><path d="M450.06 509.04c-1.48 8.41-3.27 16.78-4.91 25.15-11.73 2.42-23.65 4.07-35.45 6.2 1.88-8.05 3.37-16.17 5.19-24.23 11.73-2.34 23.43-4.84 35.17-7.12m124.61 4.22c-2.44 10.25-4.29 20.66-6.45 30.98-.39 2.76-3.9 2.6-5.98 3.15-14.02 1.88-28.01 3.82-41.97 6.09 2.1-10.62 4.25-21.23 6.35-31.85 16.02-2.75 32.03-5.61 48.05-8.37" fill="#f9ecdc"/><path d="M413.61 516.36c-1.49 8.11-3.4 16.15-5.11 24.21-10.17 1.66-20.25 3.75-30.44 5.29.73-4.66 1.86-9.23 2.61-13.88.34-4.03 4.04-7.58 6.33-10.76 3.04.59 5.5-.46 8.48-.97 6.08-1.18 12.11-2.45 18.13-3.89" fill="#f9eddc"/><path d="M525.38 521.78c-2.32 10.5-4.36 21.15-6.17 31.76-13.66 1.94-27.35 3.68-40.99 5.79 1.71-10.16 4.09-20.22 6.06-30.34 13.69-2.48 27.38-4.87 41.1-7.21" fill="#f9ecdc"/><path d="M366.86 524.53c-3.07 5.02-7.08 9.31-10.11 14.36 2.57 3.17 5.28 6.22 7.98 9.28-5.78.96-11.56 1.96-17.33 2.95 1.57-7.78 3.07-15.58 4.65-23.35 4.92-1.16 9.83-2.36 14.81-3.24" fill="#f9eddc"/><path d="M701.16 524.84c.51.26 1.01.53 1.51.8-.72 4.75-1.71 9.45-2.72 14.14-.8-.86-1.18-1.79-1.15-2.78.37-4.09 1.55-8.13 2.36-12.16" fill="#696872"/><path d="M350.67 528.04c-1.31 7.79-3.24 15.46-4.63 23.25-8.68 1.84-17.5 3.11-26.26 4.59 1.05-7.44 2.53-14.77 4.11-22.11 8.9-2.04 17.85-3.84 26.78-5.73" fill="#f9ecdc"/><path d="M623.33 528.57c-1.34 10.29-3.79 20.46-5.85 30.63-.57 1.69-.45 4.29-2.38 4.98-1.57.67-3.43.77-5.11.98-34.7 3.53-72.71 6.07-107.98 9.22-11.27.41-22.49 2.05-33.75 2.24.68-5.01 1.64-9.98 2.56-14.95 31.3-4.36 62.78-8.67 94.02-13.17 2.41-.3 4.6-1.91 5.23-4.31.68-2.97 1.06-6 1.81-8.96 10.34-1.63 20.74-2.8 31.11-4.24 6.74-.94 13.56-1.86 20.34-2.42" fill="#9dc273"/><path d="M483.04 529.13c-1.99 10.11-4.12 20.19-6.18 30.29-12.06 2.06-24.25 3.42-36.34 5.25 1.26-8.67 3.33-17.22 4.79-25.87.4-1.12.18-3.41 1.8-3.4 11.91-2.41 23.97-4.15 35.93-6.27" fill="#f9eddc"/><path d="M379.48 531.23c-.59 5.05-1.61 10.2-2.99 15.09-2.78.3-5.54.75-8.29 1.24 3.06-4.37 6.12-8.74 9.17-13.12.7-1.07 1.4-2.14 2.11-3.21m65.31 4.48c-1.38 8.47-3.24 16.86-4.77 25.31-.27 1.24-.56 2.56-1.1 3.72-3.54.93-7.3 1.09-10.91 1.66-8.07 1.01-16.1 2.35-24.15 3.44 1.77-9.42 3.66-18.85 5.72-28.2 11.76-1.81 23.49-3.88 35.21-5.93" fill="#f9ecdc"/><path d="M408.39 542.02c-2.23 9.36-3.86 18.84-6.04 28.21-2.53.19-5 .39-7.41 1.22-.51.17-1 .35-1.49.56-6.69-1.21-13.37-2.59-20.01-4.08 1.42-6.84 2.82-13.68 4.21-20.53 10.22-1.91 20.5-3.59 30.74-5.38" fill="#f9eddc"/><path d="m698.12 542.01 1.27.81c-1.4 8.35-3.07 16.65-4.51 24.98-1.75-2.06-.81-3.88-.49-6.24 1.31-6.49 2.09-13.15 3.73-19.55" fill="#5d5c68"/><path d="M376.47 547.5c-1.11 6.78-2.86 13.37-4.32 20.07-9.22-2.41-18.34-3.8-27.76-1.52.96-4.48 1.7-9 2.8-13.45 9.73-1.89 19.53-3.3 29.28-5.1m-30.79 5.32c-.82 4.55-1.88 9.01-2.44 13.57-7.6 2.48-15.64 3.97-22.96 7.16l-.11.03-.1.04c-1.43.26-2.87.54-4.3.81 2.23-5.37 2-11.45 3.61-17.07 8.76-1.54 17.54-2.96 26.3-4.54" fill="#f9ecdc"/><path d="M455.55 564.16c-1.21 6.54-2.36 13.09-3.47 19.64-19.58-3.74-39.07-7.89-58.63-11.79.49-.21.98-.39 1.49-.56 1.7.25 3.35.49 5.07.25 18.49-2.34 36.99-5.68 55.54-7.54" fill="#56a0f5"/><path d="M370.04 568.73c40.49 8.08 80.52 16.47 120.93 24.45 18.93 4.17 38.07 7.53 57.01 11.69 25.39 4.89 50.63 10.33 76.01 15.23 19.49 4.45 39.37 7.5 58.75 12.33-.34 12.19-.36 24.38-.44 36.57-.14 6.05.03 12.57-.83 18.58-.79 2.84-3.17 5.51-6.29 5.7-42.37-.39-84.8-.06-127.18-.18-65.12.07-130.93-.11-196.02.06l-2.02.06c.05-1.6.1-3.19.13-4.79.02-7.82.01-15.63.22-23.45.1-1.24-.27-2.42-1.12-3.54v-.01c2-2.25 1.67-6.51.19-8.97l.01-.06c1.85-2.88.96-7.06 1.18-10.4.27-20 .47-40 .49-60-.08-4.1.49-7.74-.74-11.69-.17-1.2-.31-2.41-.41-3.62 6.88-.97 13.51.17 20.13 2.04" fill="#d3d3d3"/><path d="M349.91 566.69c.1 1.21.24 2.42.41 3.62-1.1.26-2.19.51-3.29.77-.65 4.29-1.08 8.58-1.06 12.92-.31 31.33.05 62.67-.21 94-.04 3.09-.38 5.98 1.02 8.87l.08.93.14 1.48c1.03-.28 2.06-.56 3.09-.85-.03 1.6-.08 3.19-.13 4.79-106.09.06-212.84.04-318.96.02-2.6.04-5.19.05-7.79-.26-.94-6.54-.37-13.29-.43-19.98.2-2.15-.23-5.14 2.36-5.94 11.8-3.76 24.19-7.55 35.86-11.14 10.25-3.62 20.78-6.29 31.06-9.83 8.11-2.36 16.04-5.23 24.25-7.25.3 4.09.64 8.19.96 12.28 5.92-.06 11.93-1.95 17.72-3.11 5.97-1.58 11.99-2.84 18-4.25 18.63-4.14 37.16-8.69 55.82-12.75.54-7.13.59-14.33.77-21.47 14.81-4.46 29.3-9.81 44.22-13.86 9.75-3.25 19.66-6.06 29.28-9.66 9.28-3.12 18.64-5.97 27.93-9.04 3.25-1.12 6.31-1.47 9.06-3.36l.1-.04.11-.03c3.63.03 7.32-1.57 10.93-2.31 6.35-1.37 12.22-3.75 18.7-4.55" fill="#878699"/><path d="M347.03 571.08c1.1-.26 2.19-.51 3.29-.77 1.23 3.95.66 7.59.74 11.69-.02 20-.22 40-.49 60-.22 3.34.67 7.52-1.18 10.4.02-24.12.59-48.27.61-72.4-.23-2.66 1.23-6.55-1.79-7.98-.55 27.98-.54 55.99-.93 83.98-.31 10.28.26 20.62-.5 30.87-1.4-2.89-1.06-5.78-1.02-8.87.26-31.33-.1-62.67.21-94-.02-4.34.41-8.63 1.06-12.92" fill="#7b787f"/><path d="M348.21 572.02c3.02 1.43 1.56 5.32 1.79 7.98-.02 24.13-.59 48.28-.61 72.4l-.01.06c-.47 3.05-.49 5.92-.19 8.97v.01c-.38 8.68-.16 17.4-.22 26.1l-2.11.26-.08-.93c.76-10.25.19-20.59.5-30.87.39-27.99.38-56 .93-83.98" fill="#faeddd"/><path d="M360.93 580.07c.82.38 1.62.79 2.41 1.22-.33 17.92-.41 35.8-1.26 53.71.1 2.59-.65 6.03.79 8.29l.07.14c-1.3 14.09-.96 28.46-.99 42.6-.21 2.65-2.07 3.37-4.49 2.88-.79-1.46-1.62-2.89-2.4-4.35v-.1l1.31-1.36c.53-27.82.65-55.33 1.03-83.1.55-6.8-1.03-12.93 1.39-19.53.71-.15 1.42-.28 2.14-.4" fill="#f9ecdc"/><path d="M358.79 580.47c-2.42 6.6-.84 12.73-1.39 19.53-.38 27.77-.5 55.28-1.03 83.1l-1.31 1.36c-.5-28.76.99-57.66.92-86.46.16-4.95-.44-10.4.83-15.21.19-1.02.85-1.8 1.98-2.32" fill="#716e73"/><path d="m363.34 581.29 1.63.98c.25 5.46-.39 11.09-.59 16.58-.72 14.9.23 29.57-1.51 44.44-1.44-2.26-.69-5.7-.79-8.29.85-17.91.93-35.79 1.26-53.71" fill="#a19b99"/><path d="M208 614.41c-.21 4.63-.42 9.26-.71 13.89-13.62 4.17-27.76 6.71-41.52 10.41-14.03 3.31-28.06 6.82-42.12 9.99.98-2.73 1.88-5.47 2.66-8.26 25.23-8.13 50.46-16.37 75.66-24.63 1.91-.68 3.98-1.32 6.03-1.4" fill="#878699"/><path d="M676.84 637.09c1.41 5.69.56 11.11.66 16.91.08 9.35-.35 18.67-.44 28.02 0 1.86-.32 3.33-1.29 4.92-2.56.9-2.57-2.17-2.8-3.9.04-12.36.01-24.68-.02-37.04-.02-2.45.19-4.84.63-7.24.68-2.17.99-2.93 3.26-1.67" fill="#918c8d"/><path d="M117.78 638.64c2.29.66 4.58 1.33 6.85 2.07-.9 4.27-1.86 7.47-6.2 9.24-.23-3.77-.42-7.54-.65-11.31" fill="#d4d4d4"/><path d="m675.18 638.69.8-.02c.38 13.78-.07 27.55.02 41.34-.13 1.64.31 3.66-1.13 4.83-.08-15.32-1.39-30.92.31-46.15" fill="#f8ecdb"/><path d="M362.94 643.43c.56.81.9 1.66 1.03 2.54.49 8.45-.83 16.56-.83 25.01-.21 5.19.33 10.37.07 15.55.12 2.57-2.57 5-5.06 4.45-1.23-.75-2.21-2-3.19-3.06.05-1.12.08-2.24.1-3.36.78 1.46 1.61 2.89 2.4 4.35 2.42.49 4.28-.23 4.49-2.88.03-14.14-.31-28.51.99-42.6" fill="#9d9899"/><path d="M349.38 652.46c1.48 2.46 1.81 6.72-.19 8.97-.3-3.05-.28-5.92.19-8.97" fill="#a09793"/><path d="M349.19 661.44c.85 1.12 1.22 2.3 1.12 3.54-.21 7.82-.2 15.63-.22 23.45-1.03.29-2.06.57-3.09.85l-.14-1.48 2.11-.26c.06-8.7-.16-17.42.22-26.1" fill="#7b7476"/><path d="M351.98 693.16c65.09-.17 130.9.01 196.02-.06 42.38.12 84.81-.21 127.18.18-6.29 1.38-12.72-.61-18.65 1.61-.97.04-1.94.06-2.91.05-3.04-1.95-6.18-1.4-9.63-1.4-1.73-.06-3 .61-4.51 1.35h-.02c-3.01-2.02-6.93-1.13-10.46-1.28q-18-.075-36-.06c-2.09-.06-3.61.38-5.45 1.32h-.02c-1.89-1.02-3.36-1.45-5.53-1.36-9.33.11-18.66.03-28 .07-3.39.08-6.47-.45-9.56 1.31h-.11c-2.08-1.23-3.95-1.42-6.33-1.35-3.78.16-7.26-.49-10.62 1.4-1.58.07-3.15.07-4.73.01-1.57-.9-2.8-1.4-4.65-1.35-10.33-.11-20.67.03-31 .02-4.07.1-7.88-.77-11.53 1.27l-.57.06c-1.48-1.85-3.29-1.88-4.77-.01l-.47-.06c-2.8-1.76-5.53-1.11-8.66-1.19-2.11-.02-3.79.12-5.66 1.2l-.52.02c-2.38-1.99-4.21-1.76-6.64-.01l-.52-.03c-3.13-1.61-6.28-1.23-9.66-1.28-8 .05-16.01-.1-24.01-.06-1.75-.08-2.95.56-4.45 1.35h-.01c-3.06-1.93-6.1-1.24-9.53-1.31-6.34.22-12.67-.13-19-.01-1.78-.06-3.02.49-4.54 1.31h-.02c-3.24-2.11-7.66-1.12-11.44-1.31-3.78.23-8.41-.77-11.68 1.27l-1.32-.01z" fill="#707077"/><path d="M365 693.56c3.78.19 8.2-.8 11.44 1.31-7.68.21-15.44.26-23.12-.04 3.27-2.04 7.9-1.04 11.68-1.27m16 0c6.33-.12 12.66.23 19 .01 3.43.07 6.47-.62 9.53 1.31-10.94.21-22.12.22-33.07-.01 1.52-.82 2.76-1.37 4.54-1.31" fill="#52525c"/><path d="M413.99 693.53c8-.04 16.01.11 24.01.06 3.38.05 6.53-.33 9.66 1.28-12.7.17-25.43.31-38.12.01 1.5-.79 2.7-1.43 4.45-1.35" fill="#51515b"/><path d="M454.82 694.91c-2.26.27-4.38.26-6.64-.01 2.43-1.75 4.26-1.98 6.64.01" fill="#54535d"/><path d="M461 693.69c3.13.08 5.86-.57 8.66 1.19-4.77.18-9.55.15-14.32.01 1.87-1.08 3.55-1.22 5.66-1.2" fill="#5a5963"/><path d="M474.9 694.95c-1.59.2-3.19.22-4.77-.01 1.48-1.87 3.29-1.84 4.77.01" fill="#51505a"/><path d="M487 693.62c10.33.01 20.67-.13 31-.02 1.85-.05 3.08.45 4.65 1.35-15.72.08-31.46.19-47.18-.06 3.65-2.04 7.46-1.17 11.53-1.27" fill="#53525c"/><path d="M538 693.54c2.38-.07 4.25.12 6.33 1.35-5.64.24-11.3.14-16.95.05 3.36-1.89 6.84-1.24 10.62-1.4" fill="#56555e"/><path d="M554 693.58c9.34-.04 18.67.04 28-.07 2.17-.09 3.64.34 5.53 1.36-14.34.27-28.74.19-43.09.02 3.09-1.76 6.17-1.23 9.56-1.31m39-.03q18-.015 36 .06c3.53.15 7.45-.74 10.46 1.28-17.29.2-34.62.24-51.91-.02 1.84-.94 3.36-1.38 5.45-1.32" fill="#51505a"/><path d="M643.99 693.54c3.45 0 6.59-.55 9.63 1.4-4.71.12-9.43.17-14.14-.05 1.51-.74 2.78-1.41 4.51-1.35" fill="#53525c"/></svg>
