<?xml version="1.0" encoding="UTF-8"?>
<svg id="Layer_1" data-name="Layer 1" xmlns="http://www.w3.org/2000/svg" viewBox="0 0 834.44 234.79">
  <defs>
    <style>
      .cls-1 {
        fill-rule: evenodd;
      }
    </style>
  </defs>
  <path class="cls-1" d="m806.83,61.36l-82.53-50.45c-26.58-16.24-60.69,2.88-60.69,34.04v141.9c0,28.32,16.64,42.94,38.01,42.94,20.05,0,36.46-15.52,37.9-35.19,19.59-2.06,35.76-18.6,34.87-41.02l35.96-21.98c12.73-7.78,19.09-20.91,19.09-34.04s-4.47-26.12-22.61-36.19Zm-105.21,145.82c-8.51,0-15.39-6.9-15.39-15.39s6.89-15.4,15.39-15.4,15.4,6.9,15.4,15.4-6.9,15.39-15.4,15.39Zm50.16-51.35c0,5.81-3.74,16.36-17.6,16.36-1.57-2.6-3.44-5.01-5.56-7.15-2.13-2.14-4.52-4.04-7.1-5.64-5.79-3.57-12.6-5.62-19.9-5.62-5.03,0-9.82.98-14.21,2.75-.39.16-.82.34-1.2.5v-34.04c0-9.04,7.32-16.36,16.36-16.36h32.84c9.04,0,16.36,7.32,16.36,16.36v32.84Zm46.78-43.53l-24.18,14.78v-4.09c0-21.52-17.45-38.97-38.97-38.97h-32.84c-5.84,0-11.38,1.28-16.36,3.6v-42.67c0-13.5,14.78-21.8,26.3-14.75l86.05,52.6c11.03,6.74,11.03,22.76,0,29.5ZM93.14,47.86c-7.75-4.16-16.63-6.23-26.63-6.23H5v147.95h34.45v-50.72h27.06c10.01,0,18.88-2.12,26.63-6.34,7.75-4.22,13.84-10.04,18.28-17.44,4.44-7.4,6.66-15.75,6.66-25.05s-2.22-17.62-6.66-24.94c-4.44-7.32-10.54-13.06-18.28-17.22h0Zm-11.62,50.41c-1.41,2.39-3.42,4.26-6.02,5.6-2.61,1.34-5.6,2.01-8.98,2.01h-27.06v-31.49h27.06c3.38,0,6.37.67,8.98,2.01,2.61,1.34,4.61,3.21,6.02,5.6,1.41,2.39,2.12,5.08,2.12,8.03s-.71,5.85-2.12,8.24Zm130.39-14.38c4.15,5.1,7.03,11.98,8.66,20.63l-31.94,11.34c-.61-3.03-1.72-5.41-3.35-7.13-2.46-2.61-5.31-3.91-8.98-3.91s-6.94,1.24-9.82,3.7c-2.89,2.47-5.11,5.95-6.66,10.47-1.55,4.51-2.32,9.65-2.32,15.43v55.16h-32.76v-114.13h29.17v19.66c2.39-4.65,5.25-8.59,8.56-11.83,3.3-3.24,7.14-5.74,11.51-7.5,4.36-1.76,9.01-2.64,13.95-2.64,10.14,0,18.14,3.59,23.99,10.78h0Zm223.74-2.85c-8.38-5.28-17.65-7.92-27.79-7.92s-18.95,2.22-26.42,6.66c-4.33,2.58-8.05,5.8-11.2,9.63v-13.97h-29.17v153.96h32.76v-49.84c.25.24.48.48.74.71,4.16,3.8,9.05,6.69,14.69,8.67,5.63,1.97,11.83,2.96,18.6,2.96,10.28,0,19.62-2.64,28.01-7.92,8.38-5.28,14.97-12.47,19.76-21.56,4.79-9.09,7.18-19.06,7.18-29.91s-2.43-20.99-7.29-30.02c-4.86-9.01-11.49-16.17-19.87-21.45Zm-9.72,65.73c-2.47,4.3-5.81,7.72-10.04,10.25-4.22,2.53-8.87,3.81-13.95,3.81-5.36,0-10.14-1.23-14.38-3.7-4.22-2.46-7.58-5.85-10.04-10.14-2.47-4.3-3.7-9.19-3.7-14.69,0-5.21,1.2-9.96,3.59-14.27,2.39-4.3,5.71-7.68,9.93-10.14,4.22-2.46,9.01-3.7,14.37-3.7s9.93,1.24,14.16,3.7c4.22,2.47,7.57,5.89,10.04,10.25,2.46,4.37,3.7,9.16,3.7,14.38s-1.24,9.97-3.7,14.27h0Zm78.01,29.48c.49,5.49,1.37,9.94,2.64,13.32h-36.14V32.75h32.76v123.85c0,7.61.25,14.16.74,19.66Zm91.86-100.82h35.08l-50.3,120.69c-4.36,10.56-10.11,18.77-17.22,24.62-7.11,5.85-16.59,8.77-28.42,8.77-4.79,0-9.44-.52-13.95-1.58-4.51-1.06-8.38-2.36-11.62-3.91l9.93-31.28c2.96,1.55,5.81,2.75,8.56,3.59,2.75.84,5.45,1.27,8.14,1.27,3.81,0,6.87-1.06,9.19-3.17,2.32-2.12,4.4-5.14,6.23-9.09l2.17-4.84-43.81-105.06h35.08l25.37,67.16,25.57-67.16h0Zm-291.24,4.77c-8.59-4.72-18.17-7.08-28.74-7.08s-20.72,2.58-29.59,7.72c-8.87,5.14-15.85,12.26-20.92,21.35-5.07,9.09-7.61,19.27-7.61,30.54s2.53,21.81,7.61,30.75c5.08,8.95,12.22,15.93,21.45,20.92,9.23,5,19.83,7.5,31.81,7.5,14.79,0,26.84-3.52,36.14-10.57,7-5.3,12.15-12.11,15.48-20.43l-31.68-11.04c-.82,4.05-3.02,7.29-6.63,9.7-3.8,2.53-8.67,3.81-14.58,3.81s-10.82-1.27-15.11-3.81c-4.3-2.53-7.58-6.23-9.82-11.1-1.12-2.41-1.95-5.05-2.52-7.92h81.14c.84-4.51,1.27-8.87,1.27-13.11,0-10.14-2.47-19.37-7.4-27.69-4.94-8.32-11.7-14.83-20.29-19.55h0Zm-53.39,36.67c.3-.84.62-1.65.98-2.43,2.12-4.58,5.14-8.1,9.09-10.57,3.94-2.46,8.73-3.7,14.38-3.7,3.95,0,7.57.74,10.88,2.22,3.31,1.48,5.95,3.45,7.93,5.92,1.97,2.47,3.1,5.32,3.38,8.56h-46.63Z"/>
</svg>