<svg data-preply-ds-component="SvgTokyoUIIllustration" xmlns="http://www.w3.org/2000/svg" viewBox="0 0 1025 1023"><path d="M827.97 217.32c5.54 4.14 10.01 9.92 14.84 14.88 20.72 21.31 40.92 43.06 61.62 64.37 9.45 10.21 19.31 20.03 28.68 30.32 12.52 12.5 24.37 25.6 36.64 38.34 1.92 1.99 3.05 3.83 2.44 6.72-.21 2.32-1.84 3.37-3.39 4.84-38.35 33.36-76.54 66.76-114.81 100.2-8.89 8.13-18.29 15.67-27.12 23.87-9.66 8.33-19.4 16.57-28.92 25.08-7.51 6.73-15.84 12.93-22.54 20.48-4 4.31-5.83 9.25-8.65 14.3-6.12 11.73-13.15 23.21-21.68 33.35-5.08 6.46-10.79 12.54-17.11 17.8 2.16 4.55 4.19 8.95 4.4 14.09.04 12.6-6.53 24.45-16.66 31.76-3.31 2.59-8.06 3.56-12.04 4.83-1.42 8.59-5.02 16.17-9.81 23.35-3.34 4.72-7.83 7.29-12.54 10.41-5.29 3.41-11.08 5.83-17.43 6.22-1.94.33-4.33-.05-5.61 1.76-2.67 3.02-4.83 6.41-7.78 9.2-5.04 5.33-11.54 8.94-18.21 11.84-6.67 3.36-14.31 5.05-21.6 6.49-3.51.77-6.94.23-10.47.44-2.74 1.1-4.87 3.93-7.26 5.69-12.5 9.32-26.44 16.41-41.64 20.1-5.45 1.43-11.7 2.98-17.31 2-1.88-.22-3.82-.71-5.72-.63-2.21.91-4.23 2.3-6.33 3.43-8.47 4.34-15.48 10.24-24.49 13.66-8.83 3.1-17.89 5.83-27.33 4-4.58-1-9.34-2.21-13.65-4.05-6.18-3.59-11.16-9.85-15.58-15.37-2.84.95-5.59 2.14-8.45 3.05-7.7 2.33-16.27 1.81-23.86-.72-3.82-1.62-7.41-3.91-10.84-6.21-4.43-3.06-6.71-8-9.45-12.48-2.1-3.47-3.02-7.33-4.87-10.94-4.29-.7-9.32-.99-13.12-3.15-4.78-2.58-9.59-4.61-13.74-8.23-5.08-4.04-8.03-9.35-11-15-2.69-5.49-3.88-11.47-1.67-17.37 1.59-5.76 5.46-9.22 8.29-14.37-2.83.13-6.27 1.23-8.91.07-4.44-1.59-8.62-3.74-12.2-6.83-7.06-5.79-13.84-13.6-16.11-22.64-1.27-4.93.31-9.48 1.42-14.26-5.24-4.91-10.49-9.76-15.4-15.01-8.92-9.94-16.8-20.75-23.7-32.19-5.46-10.02-10.48-20.05-13.08-31.25-14.31-3.78-28.8-6.89-43.15-10.54-15.16-3.36-30.15-7.52-45.31-10.88-13.05-3.42-26.22-6.33-39.32-9.53-11.93-3.3-24.09-5.75-36.1-8.72-16.9-4.25-33.88-8.07-50.86-11.97-3.26-.69-6.25-1.69-9.13-3.4-.22-3.11.35-5.7 1.42-8.59 8.23-26.64 16.19-53.17 24.3-79.83 2.01-7.58 4.86-14.88 6.73-22.51 2.65-9.07 5.7-18.04 8.43-27.08 2.81-11.13 6.68-21.9 9.77-32.91 7.57-25.1 15.06-50.01 22.61-75.12 3.51-10.4 6.23-21.02 9.95-31.34 3.38.1 6.19 1.52 9.25 2.76 5.69 2.42 11.53 4.37 17 7.3 67.18 29.77 135.51 59.39 202.41 89.51 8.98 4.17 18.23 7.76 27.22 11.91 7.08 3.36 14.42 6.03 21.43 9.54 3.77 1.95 7.78 2.97 11.83 4.12 6.98 1.95 13.81 4.4 20.8 6.32 7.8 2.44 15.93 5.35 23.99 6.86 4.46.93 8.77 2.31 13.3 2.97 11.3 2.01 23.92-.35 35.33-1.07 15.87-.22 32.07-.45 47.84 1.52 6.76.71 13.58.79 20.35 1.38 18.5 1.68 37.11 3.37 55.69 3.49 7.96-.44 16.33-1.24 24.21-2.47 8.5-1.29 15.8-4.63 24.07-6.95 5.23-1.4 7.72-5.78 11.75-9.3 14.62-14.74 29.94-28.7 44.54-43.45 14.88-14.47 29.81-28.83 44.52-43.49 13.9-13.08 27.35-26.66 41.02-39.97 2.2-1.96 4.66-4.95 7.86-4.8" fill="#302f3c"/><path d="M826.93 222.86c4.48 3.33 8.07 8.12 12.05 12.15 15.28 15.73 30.26 31.74 45.44 47.57 12.09 12.25 23.66 24.99 35.73 37.27 12.48 13.18 25.15 26.18 37.63 39.37 3.63 3.94 7.54 6.98 10.41 11.57-4.59 4.56-9.64 8.67-14.57 12.85-30 26.17-59.63 52.17-89.69 78.29-21.77 18.87-43.21 38.14-65.1 56.9-8.69 7.98-17.61 14.7-25.59 23.43-6.93 7.02-10.91 17.35-16.12 25.85-6.97 12.56-15.78 23.95-25.76 34.25-2.24 2.35-4.6 4.33-7.35 6.05-3.19-1.65-6.57-3.95-10.2-4.18-3.41-.28-6.98-.04-10.1 1.49-2.89 1.45-5.57 3.31-8.43 4.83-2.97-4.15-5.11-8.59-9.1-11.74-7.09-5.8-17.03-7.34-25.65-4.36-6.53 2.01-11.29 6.15-16.36 10.48-3.32-2.05-6.22-4.41-10.21-4.91-7.1-.98-14.6.7-20.89 4.05-6.31 3.66-11.89 8.2-15.09 14.91-2.33 4.66-2.42 9.29-3.07 14.34-3.64-1.28-7.35-3.05-11.27-2.84-8.06.47-15.77 2.68-21.5 8.66-7.06 7.44-13.79 16.45-15.21 26.88-1.7 14.5 1.33 28.13 6.34 41.66 2.27 8.07 5.18 16 7.23 24.11-5.79 5.65-13.54 9.9-20.22 14.5-5.39 3.79-11.44 6.41-16.89 10.11-5.11 3.42-10.82 5.61-15.84 9.15-7.06 5.07-15.47 8.28-23.95 10.03-8.01 1.6-15.69-.1-23.15-3.04-4.28-1.74-7.51-4.81-10.32-8.39 4.94-2.49 9.96-4.3 14.52-7.51 9.06-6.37 17.57-13.8 24.67-22.32 4.36-5.21 6.84-11.02 9.97-17.03 2.1-4.46 4.4-8.27 2.84-13.36-1.79.92-3.52 1.81-5.06 3.12-7.66 6.88-13.69 14.89-21.83 21.2-11.95 10.55-24.53 21.77-38.68 29.31-8.67 4.28-19.55 4.31-28.28.17-4.84-2.39-9.27-5.1-12.22-9.76-2.8-4.53-5.64-8.57-6.9-13.83 4.17-2.98 8.87-5.02 13.11-7.88 6.8-4.54 12.79-9.72 19.04-14.95 7.35-6.18 14.58-12.89 20.63-20.36 4.52-5.55 8.34-11.75 12.1-17.9 2.41-3.96 4.09-8.23 4.61-12.86-.6-.72-1.21-1.44-1.81-2.16-1.57 1.01-3.1 2.05-4.43 3.35-9.65 9.72-18.71 19.96-28.52 29.52-6.78 6.6-12.66 13.96-19.7 20.29-4.36 3.97-8.56 8.11-12.66 12.34-1.78 1.73-3.66 3.93-5.95 4.95-4.42.84-9.46-.69-13.45-2.57-6.5-3.16-13.01-6.7-17.35-12.67-3.13-4.48-6.2-9.76-6.96-15.25-.71-6.5 3.06-11.56 6.56-16.59 11.87-17.07 26.76-30.02 41.21-44.81 6.14-5.88 12.72-11.22 18.45-17.54 3.13-3.62 7.51-5.93 7.95-11.02-3.34.41-5.76 1.52-8.47 3.46-6.88 4.92-14.23 8.97-20.85 14.19-7.76 6.07-15.51 12.54-22.23 19.75-5.58 6.62-10.66 13.65-14.8 21.26-1.69 3.31-5.12 4.35-8.6 4.42-4.56-.36-8.9-2.94-12.44-5.68-6.25-4.72-11.79-11.32-14.38-18.77-1.11-3.07-.64-6.06.11-9.14 2.84-13.25 11.85-25.52 20.63-35.55 4.25-5.39 8.8-10.48 13.44-15.54 9.49-11.17 19.75-21.56 30.16-31.86 18.63-19.4 38.11-37.92 57.94-56.08 5.3-4.73 11.71-8.4 17.63-12.37 3.68-2.46 7.49-3.53 11.9-3.65 9.88-.35 20.1-.63 29.91.62 9.38 1.1 18.6 2.35 28.07 2.24 6.73-.07 13.33.84 19.99 1.63 3.53.45 7.23.62 10.66 1.56 3 1.09 5.46 3.9 8 5.8 16.6 12.63 36.71 20.44 57.48 22.33 13.05 1.87 26.94-1.29 38.86-6.62 5.82-2.56 11.81-3.98 16.25-8.78 5.04-5.46 9.71-12.25 9.33-20.02-.07-8.49-5.43-15.87-10.91-21.89-6.18-6.55-12.53-12.78-19.29-18.72-8.62-8.52-18.11-15.85-27.3-23.71-8.48-7.91-17.97-14.75-27.1-21.89-8.15-6.28-15.98-12.01-25.97-15.05-9.77-2.89-20.28-4.2-30.35-5.55-8.34-1.25-16.59-2.98-24.95-4.1-7.62-1.28-15.47-1.82-22.8-3.88 14.53-.82 29.09-.62 43.61.32 14.05 1.66 28.19 2.14 42.26 3.55 12.72.89 25.47 1.95 38.22 2.16 8.83.19 17.82-.93 26.58-2.06 9.16-1.21 17.67-4.2 26.17-7.73 10.62-4.87 17.12-12.75 25.28-20.65 7.27-7.41 15.03-14.29 22.34-21.66 17.4-16.6 34.17-33.82 51.66-50.33 10.91-10.77 21.96-21.38 32.96-32.05 5.3-4.99 10.08-10.8 15.94-15.13" fill="#ab583a"/><path d="M126.29 227.05c4.94.66 9.84 3.42 14.51 5.15 6.44 2.42 12.85 4.9 19.04 7.93 33.49 15.12 67.46 30.02 101.02 45 7.53 3.59 15.37 6.43 22.86 10.12 39.57 17.89 79.51 35.13 119.08 52.89 10.62 3.56 21.46 6.5 32.12 9.98 11.76 3.86 23.76 6.88 35.92 9.17 11.86 1.48 23.68 3.24 35.48 5.14 12.25 2.03 24.6 3.3 36.81 5.62 13.69 1.88 26.62 3.19 39.7 8.22 5.76 2.25 10.67 5.64 15.63 9.26 8.3 5.97 16.25 12.42 24.31 18.71 6.79 5.9 13.42 11.96 20.51 17.5 4.59 4.25 9.56 7.32 13.33 12.35-4.71 7.59-12.16 11.23-13.86 20.92.92 6.27 6.53 11.27 11.19 15.05 5.37 4.34 10.67 9.19 18.12 8.49 5.93-.47 9.23-5.27 13.55-8.68.01 3.71-.41 7.12-2.41 10.33-3.04 4.84-6.36 9.89-11.92 12.03-8.15 3.97-17.6 4.24-26.4 2.72-7.07-1.82-14.41-3.65-21.02-6.81-14.31-7.07-25.54-16.65-38.75-25.24-5.64-3.92-10.85-7.58-17.67-9.2-6.82-1.48-14.35-1.05-21.39-1.57-10.74-.82-21.51-1.22-32.25-1.89-11.38-1.37-22.47-1.2-33.13 3.45-12.26 5.5-23.4 14.74-33.13 23.86-9.18 7.39-19.78 13.21-31.04 16.75-6.81 2.06-13.58 2.56-20.51 3.97-5.18.96-10.71 2.25-15.99 2.08-5.5-.07-10.29-1.46-15.8-.37.16.8.32 1.59.48 2.38 11.68 5.39 25.15 10.34 36.33 18.42-9.4 9.66-18.81 19.36-28.4 28.83-7.4 7.3-14.35 14.99-21.22 22.78-7.32 7.42-13.57 15.67-20.32 23.68-5.32 6.3-8.85 13.49-12.49 20.8-4.43-2.77-7.62-6.52-11.24-10.21-6.61-6.79-12.48-14.31-18.01-21.99-8.46-12.36-16.24-26.17-20.15-40.7-.7-4.33-5.39-5.04-8.87-6.21-22.22-5.5-44.53-10.51-66.72-16.26-24.65-6.14-49.4-11.81-74.03-17.99-15.45-3.84-31.06-7.11-46.45-11.3-9.23-2.24-18.57-4.09-27.8-6.36 2.54-11.32 6.69-21.74 9.67-32.87 2.99-9.73 5.91-19.48 8.8-29.24 7.4-23.34 13.91-47 21.4-70.32 4.33-16.1 9.89-31.85 14.19-47.97 7.24-23.81 14.28-47.66 21.57-71.46 1.75-5.58 2.88-11.64 5.35-16.94" fill="#edb88f"/><path d="M661.43 448.51c4.28 3.15 7.72 6.94 11.31 10.76 3.33 3.57 7.75 7.19 9.49 11.84-.04 7.21-7.84 14.53-15.1 11.91-5.39-2.16-10.02-7.05-14.48-10.69-2.33-2.05-5.38-5.41-4.17-8.77 1.85-5.27 6.77-9.66 10.43-13.78.68-.57 1.48-2.04 2.52-1.27" fill="#fff"/><path d="M689.71 611.24c2.91 6.89 5.01 14.04 6.57 21.35 1.82 7.32 3.04 14.89 3.14 22.44 0 9.92-3.53 19.21-9.07 27.31-3.52 4.99-8.42 7.77-13.68 10.58-.92-9.12-3.6-17.85-7.41-26.16-1.81-4.04-3.89-7.53-5.33-11.64-1.28-3.71-2.07-7.69-2.83-11.53 2.49.88 5.22 2.05 7.86 2.2 5.14.24 10.15-2.73 12.67-7.17 4.4-6.88 5.35-15.85 2.12-23.38-.97-2.02-2.1-3.9-4.68-3.44-8.79 1.13-17.07 5.86-25.78 7.89-2.1-3.24-3.98-6.6-5.79-10.01 3-5.34 9.21-8.36 14.71-10.51 10.53-4.25 23 2.05 27.5 12.07m-61.74-6.61c3.97-.24 8.18.37 11.17 3.22 4.29 4.05 7.43 9.71 10.08 14.93 3.28 6.59 4.73 13.29 6.82 20.26 2.99 9.72 5.05 19.79 5.9 29.92.38 7.33-.27 15.65-3.76 22.25-4.64 7.66-9.74 14.65-17.22 19.77-5.37 3.65-11.46 6.63-17.62 8.66.1-5.93.69-11.74-.22-17.48-1.09-7.25-2.6-14.49-4.86-21.48-1.37-4.35-3.92-8.1-5.3-12.45-2.58-8.05-5.05-16.02-8.38-23.91-1.48-3.55-4.41-6.79-5.32-10.51-.54-7.59 1.39-16.17 6.64-21.93 5.85-6.2 13.47-10.53 22.07-11.25m87.55 4.86c5.41 1.8 9.81 6.39 10.97 12.06 1.73 5.46.43 10.4-.86 15.76-2.49-.61-5.05-1.33-7.61-1.51-5.09.74-9.54 4.54-14.54 6.1-2.56-7.8-3.18-15.93-6.15-23.56-.22-.97-1.23-2.68-.53-3.58 5.47-3.69 11.93-7.14 18.72-5.27" fill="#edb88f"/><path d="M678.83 615.96c2.09 4.3 2.37 9.64 1.24 14.23-1.23 3.79-3.62 8.66-7.59 10.14-3.86.94-8.3.36-11.02-2.8-3.42-3.52-4.48-7.82-5.47-12.47 5.86-3.19 12.07-5.43 18.25-7.91 1.49-.57 3.03-.92 4.59-1.19" fill="#fff"/><path d="M633.44 621.48c3-.76 5.79-1.47 8.38.73 7.41 7.69 9.26 19.85 3.39 29-6.25 7.69-17.49 9.4-26.48 6.09-5.99-3.03-9.18-9.01-10.82-15.27-.55-2.39-1.86-5.73.64-7.47 7.26-5.95 15.96-10.27 24.89-13.08" fill="#302f3c"/><path d="M638.02 625.51c3.03 2.95 4.46 6.78 5.34 10.83.44 4.51.49 9.55-3.22 12.78-3.34 2.76-7.63 5.38-12.13 5.03-2.81-.31-6.49-.45-8.69-2.44-4.37-3.62-6.67-9.65-7.13-15.18 7.96-4.86 16.74-8.87 25.83-11.02" fill="#fff"/><path d="M578.94 635.89c3.6-.58 8.77-1.05 11.79 1.42 7.79 7.15 10.85 15.98 14.17 25.7 2.15 7 4.69 13.51 4.87 20.97.11 8.25.55 16.09-1.67 24.14-2.23 11.22-10.57 20.82-19.74 27.22-8.2 5.55-15.71 11.07-25.43 13.69-.45-2.01-.91-3.93-.75-6.01.21-3.46 2.19-6.72 2.59-10.02.31-3.13-1.12-6.62-2.02-9.6-1.41-4.19-2.35-8.49-3.45-12.77-1.43-5.66-3.97-10.9-5.38-16.57-1.87-6.88-2.61-13.96-2.68-21.08-.05-4.28.87-8.45 2.26-12.49 1.82-5.38 5.78-10.26 9.27-14.72 4.03-5.12 9.67-8.85 16.17-9.88" fill="#edb88f"/><path d="M722.15 641.28c.2.91.25 1.81.18 2.7-2.27 3.64-5.54 6.8-8.87 9.48-2.7 2.16-5.77 2.79-9.07 3.48-.16-3.11-.2-6.22 0-9.33 3.51-1.83 6.84-4.06 10.45-5.67 2.14-1 5-.6 7.31-.66" fill="#fff"/><path d="M595.56 647.27c3.69 5.76 5.28 12.92 5.19 19.71-.16 3.8-.65 7.49-3.51 10.27-5.35 5.48-13.88 6.51-20.99 4.5-8-2.87-11.4-12.58-11.02-20.42 5.59-4.26 12.34-7.43 18.66-10.44 3.98-1.84 6.99-4.3 11.67-3.62" fill="#302f3c"/><path d="M592.6 652.35c2.79 6.15 4.2 12.96 2.23 19.57-3.2 5.58-10.55 6.56-16.35 5.5-4.5-1.79-8.5-7.69-7.76-12.51 2.76-2.02 5.82-3.6 8.59-5.62 4.17-3.05 8.62-4.72 13.29-6.94" fill="#fff"/></svg>
